<?xml version="1.0" encoding="UTF-8"?>
<svg version="1.1" xmlns="http://www.w3.org/2000/svg" width="2560" height="846">
<path d="M0 0 C0.96307068 -0.00701431 1.92614136 -0.01402863 2.918396 -0.02125549 C6.00423933 -0.03864145 9.08989076 -0.04510655 12.17578125 -0.046875 C13.75771774 -0.04788712 13.75771774 -0.04788712 15.37161255 -0.04891968 C30.63704668 -0.03338463 45.45220019 0.341104 60.48828125 3.203125 C61.92324951 3.46053467 61.92324951 3.46053467 63.38720703 3.72314453 C86.66148176 7.94625357 108.8702634 14.6091137 130.48828125 24.203125 C131.32230469 24.57195801 132.15632813 24.94079102 133.015625 25.32080078 C158.57473895 36.74265601 182.62791075 52.14250754 203.2421875 71.140625 C205.20421989 72.94228257 207.20482874 74.67100343 209.23828125 76.390625 C219.23817776 85.13292804 228.32991662 94.73033068 236.48828125 105.203125 C237.36685598 106.29298559 238.24714987 107.38146192 239.12890625 108.46875 C262.63026416 137.61390692 294.48828125 186.46695738 294.48828125 225.203125 C295.175271 225.30520264 295.86226074 225.40728027 296.57006836 225.51245117 C300.03577386 226.3327039 302.94887813 227.75584627 306.1796875 229.25390625 C314.21113155 232.6749636 321.44279741 232.83208043 330.06018066 232.48272705 C334.13254432 232.32417406 338.20630359 232.2841793 342.28125 232.23828125 C343.082211 232.22770691 343.883172 232.21713257 344.70840454 232.20623779 C385.76538244 231.82134354 425.02816519 247.98887659 460.48828125 267.203125 C460.48828125 267.863125 460.48828125 268.523125 460.48828125 269.203125 C461.17535156 269.43773437 461.86242188 269.67234375 462.5703125 269.9140625 C466.09830723 271.47261439 469.07934671 273.56338445 472.17578125 275.828125 C472.79372559 276.27615479 473.41166992 276.72418457 474.04833984 277.18579102 C483.75112231 284.26582551 492.78545182 291.93490049 501.48828125 300.203125 C502.02388672 300.71004883 502.55949219 301.21697266 503.11132812 301.73925781 C511.40645429 309.64477936 518.67357313 317.99778359 525.48828125 327.203125 C526.13192627 328.06357422 526.13192627 328.06357422 526.78857422 328.94140625 C564.34841665 379.34355755 580.98485915 442.6527456 572.00634766 504.93359375 C570.55398807 514.09947481 568.64691644 523.17918972 566.48828125 532.203125 C566.26269531 533.20230957 566.03710938 534.20149414 565.8046875 535.23095703 C565.56621094 536.21306152 565.32773438 537.19516602 565.08203125 538.20703125 C564.87255859 539.09334229 564.66308594 539.97965332 564.44726562 540.89282227 C563.24804264 543.78188722 562.15898993 544.59921346 559.48828125 546.203125 C556.85578138 546.57687116 556.85578138 546.57687116 553.7939806 546.5750618 C552.04125425 546.58494656 552.04125425 546.58494656 550.25311929 546.59503102 C548.96824913 546.58697462 547.68337898 546.57891821 546.35957336 546.57061768 C544.98133021 546.5726417 543.60308846 546.57598069 542.22485131 546.58052325 C538.43237701 546.58918737 534.64014686 546.57909034 530.8476938 546.56598091 C526.75779159 546.55509714 522.6679123 546.56149427 518.57800293 546.56576538 C510.55564217 546.57140839 502.53337677 546.56106031 494.51103226 546.54547742 C485.14388055 546.52792276 475.77674727 546.52651763 466.40958168 546.52586183 C449.66064789 546.52417174 432.91175728 546.50834455 416.1628418 546.484375 C399.97338503 546.46122332 383.78395561 546.44696545 367.59448242 546.44335938 C366.10515897 546.44302522 366.10515897 546.44302522 364.58574817 546.44268432 C362.5850612 546.44224166 360.58437423 546.44179964 358.58368726 546.44135825 C357.59633227 546.44113869 356.60897729 546.44091912 355.59170246 546.4406929 C354.60658039 546.44047692 353.62145833 546.44026093 352.60648407 546.4400384 C337.11476241 546.43631146 321.62304506 546.42494395 306.13132823 546.4125625 C300.55055129 546.40816224 294.96977474 546.40470959 289.38899676 546.40194038 C280.50739405 546.39745666 271.62580737 546.38951443 262.74421469 546.37516597 C258.6956383 546.36867094 254.64707546 546.3635119 250.59849358 546.36270523 C229.54370945 546.35703215 208.53003773 545.96119867 187.48828125 545.203125 C187.24078125 545.821875 186.99328125 546.440625 186.73828125 547.078125 C185.21200883 549.67278812 184.27215418 550.12488716 181.48828125 551.203125 C178.84269372 551.45483067 178.84269372 551.45483067 175.75861269 551.45727533 C174.57980279 551.46305104 173.40099289 551.46882676 172.18646148 551.47477749 C170.88764855 551.4709527 169.58883561 551.46712791 168.25066471 551.46318722 C166.8541791 551.4661827 165.45769514 551.47005243 164.06121412 551.47471955 C160.20241196 551.48504485 156.34370107 551.48283473 152.48489105 551.47866419 C148.29487599 551.47630642 144.10488383 551.485456 139.91487736 551.49314839 C132.56425934 551.5050178 125.21366617 551.50936028 117.86303902 551.50882721 C106.93258827 551.50803541 96.00216898 551.51856893 85.07172662 551.53124278 C63.27880905 551.55600865 41.48589906 551.56476818 19.69296936 551.56977927 C17.99924047 551.57017103 17.99924047 551.57017103 16.27129483 551.57057071 C14.57425973 551.57096112 14.57425973 551.57096112 12.84294109 551.57135942 C0.3188813 551.57443881 -12.20517637 551.58094246 -24.7292347 551.5875721 C-62.53678885 551.60722164 -100.3443407 551.62362546 -138.15190029 551.62644863 C-139.36170697 551.62654269 -140.57151364 551.62663675 -141.81798113 551.62673366 C-146.72104907 551.62711216 -151.62411702 551.62747615 -156.52718496 551.62783664 C-160.21774896 551.62810837 -163.90831296 551.62838504 -167.59887695 551.62866211 C-169.42812866 551.62879414 -169.42812866 551.62879414 -171.29433495 551.62892884 C-209.62764245 551.63183548 -247.96089956 551.65394083 -286.29418945 551.69018555 C-329.33080873 551.73087601 -372.36739367 551.75460692 -415.40403324 551.75490814 C-419.98948451 551.75500497 -424.57493577 551.7551717 -429.16038704 551.75538826 C-430.28949787 551.75543237 -431.41860869 551.75547649 -432.581935 551.75552194 C-450.78316325 551.75664363 -468.98434118 551.77407886 -487.1855532 551.79720758 C-505.46471659 551.82000518 -523.74381171 551.82430445 -542.02298408 551.80965828 C-552.89322717 551.80148273 -563.76325578 551.80728261 -574.63347303 551.83283913 C-581.88551075 551.84851878 -589.13739519 551.84618746 -596.38942903 551.8289324 C-600.5274101 551.81960427 -604.66497627 551.81833773 -608.802926 551.83889847 C-612.56357831 551.85742651 -616.32347249 551.85315967 -620.08409471 551.83030753 C-622.08173611 551.82415564 -624.07940632 551.8426644 -626.07696339 551.8620216 C-635.69940577 551.76632026 -635.69940577 551.76632026 -638.77540165 548.8542648 C-650.59698622 530.8041786 -643.85023491 496.12742801 -639.94189453 476.31445312 C-629.94375117 429.4496475 -601.37424267 387.50775445 -561.55371094 360.89453125 C-557.30443464 358.1508005 -552.95078302 355.62580075 -548.51171875 353.203125 C-547.88475098 352.85942871 -547.2577832 352.51573242 -546.61181641 352.16162109 C-521.03347374 338.33075375 -493.43382528 331.61395946 -464.51171875 330.203125 C-464.72828125 329.26597656 -464.94484375 328.32882812 -465.16796875 327.36328125 C-472.3546905 293.61211709 -465.78235555 257.804519 -447.3203125 228.6796875 C-441.37365383 219.64678826 -434.24485886 211.73276142 -426.51171875 204.203125 C-426.08503906 203.71972656 -425.65835937 203.23632812 -425.21875 202.73828125 C-407.31676635 183.17955875 -376.05855604 170.28876143 -349.96484375 168.296875 C-349.1553125 168.2659375 -348.34578125 168.235 -347.51171875 168.203125 C-346.3309375 168.1515625 -345.15015625 168.1 -343.93359375 168.046875 C-314.02782667 167.18051007 -285.35496612 175.69948364 -260.51171875 192.203125 C-258.67322458 189.44538374 -257.53363869 187.01708773 -256.296875 183.9609375 C-245.42571615 157.4595804 -232.61058437 132.53406368 -214.51171875 110.203125 C-213.78597656 109.2853125 -213.06023437 108.3675 -212.3125 107.421875 C-199.69143111 91.65120364 -185.49066194 76.5857843 -169.51171875 64.203125 C-168.22259767 63.18496999 -166.93353956 62.16673527 -165.64453125 61.1484375 C-119.10232181 24.66603374 -59.70239536 0.2931856 0 0 Z " fill="#F48120" transform="translate(1930.51171875,-0.203125)"/>
<path d="M0 0 C4.30994021 0.6404004 7.75291419 2.22458333 11.69140625 4.05078125 C19.7228503 7.4718386 26.95451616 7.62895543 35.57189941 7.27960205 C39.64426307 7.12104906 43.71802234 7.0810543 47.79296875 7.03515625 C48.59392975 7.02458191 49.39489075 7.01400757 50.22012329 7.00311279 C91.27710119 6.61821854 130.53988394 22.78575159 166 42 C166 42.66 166 43.32 166 44 C166.68707031 44.23460937 167.37414063 44.46921875 168.08203125 44.7109375 C171.61002598 46.26948939 174.59106546 48.36025945 177.6875 50.625 C178.30544434 51.07302979 178.92338867 51.52105957 179.56005859 51.98266602 C189.26284106 59.06270051 198.29717057 66.73177549 207 75 C207.53560547 75.50692383 208.07121094 76.01384766 208.62304688 76.53613281 C216.91817304 84.44165436 224.18529188 92.79465859 231 102 C231.42909668 102.57363281 231.85819336 103.14726562 232.30029297 103.73828125 C269.8601354 154.14043255 286.4965779 217.4496206 277.51806641 279.73046875 C276.06570682 288.89634981 274.15863519 297.97606472 272 307 C271.77441406 307.99918457 271.54882812 308.99836914 271.31640625 310.02783203 C271.07792969 311.00993652 270.83945313 311.99204102 270.59375 313.00390625 C270.38427734 313.89021729 270.17480469 314.77652832 269.95898438 315.68969727 C268.75976139 318.57876222 267.67070868 319.39608846 265 321 C262.36750013 321.37374616 262.36750013 321.37374616 259.30569935 321.3719368 C257.552973 321.38182156 257.552973 321.38182156 255.76483804 321.39190602 C254.47996788 321.38384962 253.19509773 321.37579321 251.87129211 321.36749268 C250.49304896 321.3695167 249.11480721 321.37285569 247.73657006 321.37739825 C243.94409576 321.38606237 240.15186561 321.37596534 236.35941255 321.36285591 C232.26951034 321.35197214 228.17963105 321.35836927 224.08972168 321.36264038 C216.06736092 321.36828339 208.04509552 321.35793531 200.02275101 321.34235242 C190.6555993 321.32479776 181.28846602 321.32339263 171.92130043 321.32273683 C155.17236664 321.32104674 138.42347603 321.30521955 121.67456055 321.28125 C105.48510378 321.25809832 89.29567436 321.24384045 73.10620117 321.24023438 C71.61687772 321.23990022 71.61687772 321.23990022 70.09746692 321.23955932 C68.09677995 321.23911666 66.09609298 321.23867464 64.09540601 321.23823325 C63.10805102 321.23801369 62.12069604 321.23779412 61.10342121 321.2375679 C60.11829914 321.23735192 59.13317708 321.23713593 58.11820282 321.2369134 C42.62648116 321.23318646 27.13476381 321.22181895 11.64304698 321.2094375 C6.06227004 321.20503724 0.48149349 321.20158459 -5.09928449 321.19881538 C-13.9808872 321.19433166 -22.86247388 321.18638943 -31.74406656 321.17204097 C-35.79264295 321.16554594 -39.84120579 321.1603869 -43.88978767 321.15958023 C-64.9445718 321.15390715 -85.95824352 320.75807367 -107 320 C-105.92844407 311.18684627 -105.92844407 311.18684627 -104.984375 307.94921875 C-104.78739014 307.26118164 -104.59040527 306.57314453 -104.38745117 305.86425781 C-104.17709229 305.14592773 -103.9667334 304.42759766 -103.75 303.6875 C-103.30324421 302.09248746 -102.85663426 300.49743407 -102.41015625 298.90234375 C-101.5045975 295.71232164 -100.54961623 292.54330639 -99.55859375 289.37890625 C-93.56285217 269.58101367 -93.8251568 249.73803594 -103.3125 231.0625 C-112.42593726 215.30184107 -128.24836014 204.68890489 -145.6652298 199.61087704 C-153.99755868 197.43077881 -162.08478449 196.70196143 -170.67382812 196.69702148 C-171.78654587 196.68858215 -172.89926361 196.68014282 -174.04570007 196.67144775 C-177.70755496 196.64577889 -181.36932836 196.63352923 -185.03125 196.62109375 C-187.62537227 196.6048695 -190.21948869 196.58768461 -192.81359863 196.56959534 C-198.95977294 196.5280432 -205.10595612 196.49563609 -211.25220346 196.46712118 C-224.07446389 196.40739995 -236.89661436 196.32796385 -249.71875 196.24609375 C-251.06196274 196.23778221 -252.4051755 196.22947508 -253.74838829 196.22117233 C-269.2393053 196.12389625 -284.7213893 195.9524073 -300.20703125 195.53515625 C-331.69357364 194.69083432 -363.19412403 194.47474783 -394.68917847 194.12774658 C-404.3610209 194.02116146 -414.03279891 193.90949361 -423.70456791 193.79646492 C-458.27432165 193.39251028 -492.84352822 192.98921344 -527.41528893 192.80973053 C-531.21533444 192.78949667 -535.01535761 192.76689624 -538.81538391 192.74334717 C-541.20870971 192.72863606 -543.60203551 192.71392655 -545.99536133 192.69921875 C-547.13583325 192.6921352 -548.27630518 192.68505165 -549.45133686 192.67775345 C-556.01348945 192.63889261 -562.57538348 192.61818571 -569.13764381 192.61152077 C-573.08120029 192.60382046 -577.02454829 192.58052445 -580.96800995 192.55280685 C-582.74365854 192.54381978 -584.51935847 192.54168613 -586.29502106 192.54726028 C-588.67039632 192.55423514 -591.04443223 192.53718599 -593.41967773 192.51416016 C-594.72686264 192.51131012 -596.03404755 192.50846008 -597.38084412 192.50552368 C-601.83137117 191.88387408 -604.25964991 190.4322356 -608 188 C-608.74254 183.7569143 -607.89236041 181.13622734 -605.5 177.6875 C-601.79430319 173.9124399 -599.09838115 173.48297356 -593.88240051 173.28710938 C-592.83235611 173.24245922 -592.83235611 173.24245922 -591.76109868 173.19690704 C-589.50748604 173.10918025 -587.2547347 173.0505701 -585 173 C-583.91506496 172.97265778 -583.91506496 172.97265778 -582.80821204 172.94476318 C-577.3330219 172.81513993 -571.85802432 172.76323169 -566.3815918 172.71875 C-564.56990705 172.7008857 -562.75822598 172.68264503 -560.94654846 172.6640625 C-557.06515561 172.62505732 -553.18375059 172.58868949 -549.30231285 172.55444336 C-543.0760766 172.49949886 -536.84990706 172.43854386 -530.62373352 172.37695312 C-520.68030037 172.27929776 -510.7368338 172.18568841 -500.79334623 172.09375763 C-482.21983781 171.92191642 -463.6464004 171.74255402 -445.07297134 171.56236267 C-440.77527211 171.52066884 -436.47757048 171.47923559 -432.17986679 171.43800354 C-402.81585051 171.15579396 -373.45332314 170.81420782 -344.09082603 170.40431213 C-324.12334435 170.12568851 -304.15631515 169.88515006 -284.1875 169.71875 C-283.03688898 169.70911224 -281.88627796 169.69947449 -280.70079994 169.68954468 C-270.51784953 169.60492805 -260.33486114 169.52540387 -250.15185547 169.44775391 C-237.77555487 169.35247763 -225.39951195 169.2456479 -213.02360535 169.10769653 C-207.35236159 169.04456871 -201.68119903 168.98805821 -196.00976562 168.94482422 C-190.23171431 168.89996482 -184.45415805 168.83555443 -178.67645264 168.75828552 C-176.52161406 168.73248092 -174.36668848 168.71295717 -172.21173096 168.70057678 C-154.66518589 168.59299832 -137.89649989 166.56367056 -121.25 160.75 C-119.95461304 160.30720703 -119.95461304 160.30720703 -118.63305664 159.85546875 C-110.3728302 156.93964618 -102.66241642 153.21969487 -95 149 C-93.41832031 148.15308594 -93.41832031 148.15308594 -91.8046875 147.2890625 C-50.72771518 124.44468886 -30.93254857 85.96442851 -15.125 43.4375 C-14.30299485 41.25161013 -13.48008007 39.06606211 -12.65625 36.88085938 C-10.41658826 30.92824026 -8.20028722 24.96727764 -6 19 C-5.7150769 18.22827454 -5.43015381 17.45654907 -5.13659668 16.66143799 C-2.06323433 8.47451186 -2.06323433 8.47451186 0 0 Z " fill="#FAAD3F" transform="translate(2225,225)"/>
<path d="M0 0 C5.05485927 0.73094706 9.59903179 2.68380904 14.3125 4.5625 C15.14845703 4.89185547 15.98441406 5.22121094 16.84570312 5.56054688 C18.89863546 6.36998877 20.94997286 7.18323457 23 8 C22.40832031 8.92941406 21.81664063 9.85882813 21.20703125 10.81640625 C18.48287162 15.59775544 17.13996181 20.65819528 15.6875 25.9375 C15.07711438 28.09383253 14.46642898 30.25008021 13.85546875 32.40625 C13.54786621 33.50324219 13.24026367 34.60023438 12.92333984 35.73046875 C11.76696702 39.82516594 10.56963433 43.90706275 9.36669922 47.98828125 C8.49391274 50.95821382 7.63485205 53.93187414 6.77734375 56.90625 C5.5629285 61.10805873 4.29707042 65.29054595 3.00390625 69.46875 C-0.6750005 81.57973651 -3.27101419 92.33130421 -2 105 C-1.90203125 105.98613281 -1.8040625 106.97226562 -1.703125 107.98828125 C0.48815035 123.12999389 7.00956502 138.20177492 19 148 C36.31899443 160.40950868 52.77595807 165.1712559 73.91159058 166.33639526 C76.94059342 166.5036213 79.96838907 166.68605927 82.99633789 166.87133789 C93.35354541 167.49554359 103.71348584 168.04371731 114.07775879 168.53634644 C118.99926599 168.77131799 123.92017191 169.01790204 128.84112549 169.26416016 C132.38627459 169.43503101 135.93191381 169.58507805 139.47802734 169.734375 C141.67159468 169.84152645 143.86511938 169.94955577 146.05859375 170.05859375 C147.04936417 170.09403793 148.04013458 170.12948212 149.06092834 170.16600037 C155.34831449 170.50518871 159.5543643 171.81232059 165 175 C165.29779064 179.87525815 164.28199849 182.43209781 161.1725769 186.14648438 C154.17411052 192.11716682 139.21453485 190.50297422 130.20537949 190.89111328 C127.61120276 191.00295249 125.01755014 191.12354136 122.42385864 191.24609375 C116.90791285 191.50511447 111.39149332 191.75296223 105.875 192 C99.49077905 192.28710139 93.10682181 192.57905412 86.72320938 192.87939453 C84.20529636 192.99592236 81.68715457 193.10564479 79.16891479 193.21484375 C57.38074361 194.14730086 57.38074361 194.14730086 36 198.125 C35.18515137 198.33527832 34.37030273 198.54555664 33.53076172 198.76220703 C24.30674729 201.27268605 15.66189734 205.00250659 7 209 C6.05350586 209.42104004 6.05350586 209.42104004 5.08789062 209.85058594 C-10.99401854 217.01466434 -24.49391451 227.7680205 -37 240 C-38.19496094 241.10214844 -38.19496094 241.10214844 -39.4140625 242.2265625 C-48.7836521 251.06642265 -55.90464562 261.844456 -62.4375 272.875 C-62.83831787 273.55175781 -63.23913574 274.22851562 -63.65209961 274.92578125 C-68.54477555 283.40352754 -71.67765067 291.61428879 -73.75 301.1875 C-74.08064453 302.62512695 -74.08064453 302.62512695 -74.41796875 304.09179688 C-76.51906908 312.14030396 -76.51906908 312.14030396 -75 320 C-85.56 320 -96.12 320 -107 320 C-105.87577957 311.00623658 -105.87577957 311.00623658 -104.984375 307.94921875 C-104.78739014 307.26118164 -104.59040527 306.57314453 -104.38745117 305.86425781 C-104.17709229 305.14592773 -103.9667334 304.42759766 -103.75 303.6875 C-103.30324421 302.09248746 -102.85663426 300.49743407 -102.41015625 298.90234375 C-101.5045975 295.71232164 -100.54961623 292.54330639 -99.55859375 289.37890625 C-93.56285217 269.58101367 -93.8251568 249.73803594 -103.3125 231.0625 C-112.42593726 215.30184107 -128.24836014 204.68890489 -145.6652298 199.61087704 C-153.99755868 197.43077881 -162.08478449 196.70196143 -170.67382812 196.69702148 C-171.78654587 196.68858215 -172.89926361 196.68014282 -174.04570007 196.67144775 C-177.70755496 196.64577889 -181.36932836 196.63352923 -185.03125 196.62109375 C-187.62537227 196.6048695 -190.21948869 196.58768461 -192.81359863 196.56959534 C-198.95977294 196.5280432 -205.10595612 196.49563609 -211.25220346 196.46712118 C-224.07446389 196.40739995 -236.89661436 196.32796385 -249.71875 196.24609375 C-251.06196274 196.23778221 -252.4051755 196.22947508 -253.74838829 196.22117233 C-269.2393053 196.12389625 -284.7213893 195.9524073 -300.20703125 195.53515625 C-331.69357364 194.69083432 -363.19412403 194.47474783 -394.68917847 194.12774658 C-404.3610209 194.02116146 -414.03279891 193.90949361 -423.70456791 193.79646492 C-458.27432165 193.39251028 -492.84352822 192.98921344 -527.41528893 192.80973053 C-531.21533444 192.78949667 -535.01535761 192.76689624 -538.81538391 192.74334717 C-541.20870971 192.72863606 -543.60203551 192.71392655 -545.99536133 192.69921875 C-547.13583325 192.6921352 -548.27630518 192.68505165 -549.45133686 192.67775345 C-556.01348945 192.63889261 -562.57538348 192.61818571 -569.13764381 192.61152077 C-573.08120029 192.60382046 -577.02454829 192.58052445 -580.96800995 192.55280685 C-582.74365854 192.54381978 -584.51935847 192.54168613 -586.29502106 192.54726028 C-588.67039632 192.55423514 -591.04443223 192.53718599 -593.41967773 192.51416016 C-594.72686264 192.51131012 -596.03404755 192.50846008 -597.38084412 192.50552368 C-601.83137117 191.88387408 -604.25964991 190.4322356 -608 188 C-608.74254 183.7569143 -607.89236041 181.13622734 -605.5 177.6875 C-601.79430319 173.9124399 -599.09838115 173.48297356 -593.88240051 173.28710938 C-592.83235611 173.24245922 -592.83235611 173.24245922 -591.76109868 173.19690704 C-589.50748604 173.10918025 -587.2547347 173.0505701 -585 173 C-583.91506496 172.97265778 -583.91506496 172.97265778 -582.80821204 172.94476318 C-577.3330219 172.81513993 -571.85802432 172.76323169 -566.3815918 172.71875 C-564.56990705 172.7008857 -562.75822598 172.68264503 -560.94654846 172.6640625 C-557.06515561 172.62505732 -553.18375059 172.58868949 -549.30231285 172.55444336 C-543.0760766 172.49949886 -536.84990706 172.43854386 -530.62373352 172.37695312 C-520.68030037 172.27929776 -510.7368338 172.18568841 -500.79334623 172.09375763 C-482.21983781 171.92191642 -463.6464004 171.74255402 -445.07297134 171.56236267 C-440.77527211 171.52066884 -436.47757048 171.47923559 -432.17986679 171.43800354 C-402.81585051 171.15579396 -373.45332314 170.81420782 -344.09082603 170.40431213 C-324.12334435 170.12568851 -304.15631515 169.88515006 -284.1875 169.71875 C-283.03688898 169.70911224 -281.88627796 169.69947449 -280.70079994 169.68954468 C-270.51784953 169.60492805 -260.33486114 169.52540387 -250.15185547 169.44775391 C-237.77555487 169.35247763 -225.39951195 169.2456479 -213.02360535 169.10769653 C-207.35236159 169.04456871 -201.68119903 168.98805821 -196.00976562 168.94482422 C-190.23171431 168.89996482 -184.45415805 168.83555443 -178.67645264 168.75828552 C-176.52161406 168.73248092 -174.36668848 168.71295717 -172.21173096 168.70057678 C-154.66518589 168.59299832 -137.89649989 166.56367056 -121.25 160.75 C-119.95461304 160.30720703 -119.95461304 160.30720703 -118.63305664 159.85546875 C-110.3728302 156.93964618 -102.66241642 153.21969487 -95 149 C-93.41832031 148.15308594 -93.41832031 148.15308594 -91.8046875 147.2890625 C-50.72771518 124.44468886 -30.93254857 85.96442851 -15.125 43.4375 C-14.30299485 41.25161013 -13.48008007 39.06606211 -12.65625 36.88085938 C-10.41658826 30.92824026 -8.20028722 24.96727764 -6 19 C-5.7150769 18.22827454 -5.43015381 17.45654907 -5.13659668 16.66143799 C-2.06323433 8.47451186 -2.06323433 8.47451186 0 0 Z " fill="#FEFEFD" transform="translate(2225,225)"/>
<path d="M0 0 C0.75357788 -0.00570007 1.50715576 -0.01140015 2.28356934 -0.01727295 C3.87360251 -0.0266705 5.46365471 -0.03323591 7.05371094 -0.03710938 C9.43461104 -0.04673695 11.81461714 -0.07777722 14.1953125 -0.109375 C43.67954716 -0.31551287 68.10535181 10.82215897 89.21875 31.140625 C108.40372784 50.89964155 117.38019445 77.62977602 117.27148438 104.83447266 C116.64406806 134.08485358 104.87802783 159.93106647 84.18432617 180.47558594 C60.71142508 202.81917181 31.17941176 208.89721071 -0.23242188 208.29199219 C-23.09820815 207.56596757 -44.53921781 198.72151172 -62.03125 184.203125 C-62.89234375 183.50574219 -63.7534375 182.80835938 -64.640625 182.08984375 C-84.11820003 165.54600285 -96.67096136 140.1842208 -98.90625 114.7578125 C-100.42814653 83.65405216 -92.17596132 56.8425868 -71.78125 33.140625 C-53.35042871 13.26054255 -27.36688835 0.16514367 0 0 Z M-25.03125 64.203125 C-34.28807913 75.37389097 -40.79387476 88.06791855 -40.27734375 102.92578125 C-38.5569564 118.84619122 -32.88964971 131.32291456 -21.03125 142.203125 C-7.31873697 153.00448959 8.98098435 155.55148302 25.96875 154.203125 C36.31390876 152.26263524 44.49186946 145.83718196 50.78125 137.578125 C60.50277721 122.75451968 61.9482078 104.48421689 59.390625 87.32421875 C55.90747021 74.42071352 47.17976012 63.22669526 35.859375 56.30078125 C15.95818034 45.08916352 -8.64573485 46.79084128 -25.03125 64.203125 Z " fill="#3F3F40" transform="translate(583.03125,635.796875)"/>
<path d="M0 0 C27.72 -0.12375 27.72 -0.12375 56 -0.25 C61.8059375 -0.28641602 67.611875 -0.32283203 73.59375 -0.36035156 C80.7578125 -0.37841797 80.7578125 -0.37841797 84.12597656 -0.3817749 C86.44697143 -0.3878629 88.76795474 -0.40181664 91.08886719 -0.42230225 C117.86146122 -0.64652001 140.61704946 3.96607925 160.97265625 22.8125 C172.82482742 35.60096986 178.8202164 53.6175746 178.28515625 70.90234375 C176.5288321 89.98131709 168.84423184 107.50439471 154 120 C150.09206608 122.82266709 146.08492328 125.44232281 142 128 C141.01 128.66 140.02 129.32 139 130 C144.88841891 138.90074632 150.85106069 147.75054629 156.84466553 156.58074951 C158.06758739 158.38249531 159.28989602 160.18465616 160.51220703 161.98681641 C164.25370449 167.50051953 168.00172779 173.0094744 171.7747345 178.50167847 C173.36876344 180.82237125 174.95968522 183.14518632 176.55050659 185.46807861 C177.67035531 187.10001534 178.79522352 188.72850398 179.92016602 190.35693359 C180.58975342 191.33484863 181.25934082 192.31276367 181.94921875 193.3203125 C182.83613403 194.60832764 182.83613403 194.60832764 183.7409668 195.92236328 C185 198 185 198 185 200 C176.79404386 200.25565877 168.58976839 200.45069637 160.38080597 200.56993389 C156.56818853 200.62718591 152.75830763 200.70471884 148.94726562 200.82983398 C145.26412959 200.94998355 141.58361162 201.01524483 137.89866638 201.04364967 C136.49815131 201.06386887 135.097769 201.10336181 133.69837952 201.16303062 C122.82899026 201.60776176 122.82899026 201.60776176 118.55317688 197.84913635 C116.44575178 194.99927464 114.71579132 192.09961988 113 189 C111.8397583 187.24919079 110.66580425 185.50737934 109.47729492 183.77563477 C108.30904458 181.9992931 107.14350521 180.221166 105.98046875 178.44140625 C105.35521805 177.48983139 104.72996735 176.53825653 104.08576965 175.55784607 C102.1171379 172.56105647 100.1520739 169.56195099 98.1875 166.5625 C96.2045743 163.53838781 94.22086313 160.51479779 92.235672 157.49217224 C91.00774936 155.62223124 89.78119648 153.75138986 88.55619812 151.87953186 C87.7243676 150.61187233 87.7243676 150.61187233 86.87573242 149.31860352 C86.1491468 148.20921165 86.1491468 148.20921165 85.40788269 147.07740784 C84.00392382 145.00578981 82.50152344 143.00203125 81 141 C73.08 140.67 65.16 140.34 57 140 C57 159.8 57 179.6 57 200 C38.19 200 19.38 200 0 200 C0 134 0 68 0 0 Z M57 51 C57 66.51 57 82.02 57 98 C68.22 98 79.44 98 91 98 C91 97.34 91 96.68 91 96 C91.60585937 95.97421875 92.21171875 95.9484375 92.8359375 95.921875 C102.08769675 95.29560207 110.4783559 92.83219858 117 86 C121.02803126 80.37334384 122.03004646 74.80914926 121 68 C119.30664629 61.67515568 115.7573969 58.61417059 110.31640625 55.2265625 C102.70508739 51.19628573 95.23276934 50.84874161 86.78515625 50.90234375 C86.02553589 50.90335083 85.26591553 50.90435791 84.48327637 50.90539551 C81.6763353 50.9105829 78.86941595 50.92454377 76.0625 50.9375 C69.771875 50.958125 63.48125 50.97875 57 51 Z " fill="#3F3F40" transform="translate(2052,641)"/>
<path d="M0 0 C102.99586048 0 102.99586048 0 121 5.5625 C121.81267334 5.81153076 122.62534668 6.06056152 123.46264648 6.31713867 C137.41762042 10.85314398 150.2803874 17.9592962 161 28 C161.7734375 28.68320312 162.546875 29.36640625 163.34375 30.0703125 C180.4670951 45.96218415 189.36327002 69.90818723 190.23828125 92.890625 C190.7699474 118.70169356 184.90713783 142.87761587 168 163 C167.41734375 163.72832031 166.8346875 164.45664062 166.234375 165.20703125 C147.64118036 187.51105255 118.96399212 196.89288976 91 200 C60.97 200 30.94 200 0 200 C0 134 0 68 0 0 Z M54 49 C54 82 54 115 54 149 C88.94341991 150.1538541 88.94341991 150.1538541 116.93359375 134.2578125 C126.63449607 123.65833889 131.3720364 110.48857409 131.21484375 96.25390625 C130.20153451 80.90687717 123.1691922 69.44822749 112.0625 59.21484375 C95.13534746 45.42626741 74.76788858 48.20123505 54 49 Z " fill="#3F3F41" transform="translate(1040,641)"/>
<path d="M0 0 C53.79 0 107.58 0 163 0 C163 15.18 163 30.36 163 46 C128.02 46 93.04 46 57 46 C57 55.9 57 65.8 57 76 C88.68 76 120.36 76 153 76 C153 91.18 153 106.36 153 122 C121.32 122 89.64 122 57 122 C57 131.57 57 141.14 57 151 C92.64 151 128.28 151 165 151 C165 167.17 165 183.34 165 200 C110.55 200 56.1 200 0 200 C0 134 0 68 0 0 Z " fill="#3F3F40" transform="translate(2307,641)"/>
<path d="M0 0 C16.75170172 15.14577781 28.77704355 33.87461163 34 56 C34 57.32 34 58.64 34 60 C14.53 60 -4.94 60 -25 60 C-26.98 56.37 -28.96 52.74 -31 49 C-39.46530975 38.09553321 -51.16354066 30.20970321 -65 28 C-80.62197757 26.79679213 -93.23212131 30.84314297 -105.25 40.87890625 C-115.55938871 50.54395817 -120.95624728 63.01122852 -121.47265625 77.08056641 C-121.61576821 90.07053254 -118.41954841 100.26413829 -111 111 C-110.57203125 111.62519531 -110.1440625 112.25039063 -109.703125 112.89453125 C-102.00930467 122.91912656 -89.95053466 128.43772486 -77.77734375 130.5625 C-64.39293214 132.09397022 -51.30886189 127.86047688 -40.625 119.625 C-35.28167475 114.28167475 -31.76177566 108.58310741 -28 102 C-8.2 102 11.6 102 32 102 C26.14505962 119.56482115 26.14505962 119.56482115 22.8125 125.625 C22.43013184 126.33027832 22.04776367 127.03555664 21.65380859 127.76220703 C8.05479228 152.14341868 -14.41231631 170.65640731 -41.2265625 178.63671875 C-72.03540466 187.15409751 -103.53524369 184.69952532 -131.66015625 169.0859375 C-155.19941559 154.38422465 -172.02737423 131.93841765 -179 105 C-185.54628858 76.4610593 -180.34701417 47.41136689 -164.95703125 22.72265625 C-163.07238473 20.0405146 -161.10732603 17.51007753 -159 15 C-158.29101562 14.15308594 -157.58203125 13.30617188 -156.8515625 12.43359375 C-117.85304058 -32.38049723 -45.63131074 -38.99294181 0 0 Z " fill="#3F3F40" transform="translate(181,663)"/>
<path d="M0 0 C18.81 0 37.62 0 57 0 C57.02578125 8.65605469 57.0515625 17.31210937 57.078125 26.23046875 C57.10651224 32.43135929 57.13738295 38.63219876 57.1718235 44.83305454 C57.21604304 52.8537914 57.25451612 60.87441667 57.27099609 68.89526367 C57.28406873 75.24857466 57.31117481 81.60165053 57.35461307 87.95482904 C57.37710353 91.31389693 57.39082366 94.67242321 57.39188385 98.03160667 C57.39426595 101.79640799 57.42144795 105.56030673 57.45410156 109.32495117 C57.4490712 110.41900269 57.44404083 111.5130542 57.43885803 112.64025879 C57.61634314 125.96358997 61.36542839 136.36542839 70.75 145.75 C80.23102445 152.31378616 90.66426181 153.94356772 102 153 C112.15277432 150.516495 119.93705425 145.53521489 126 137 C131.41922337 127.01034728 131.15124561 116.2255086 131.11352539 105.12451172 C131.11374443 103.41056969 131.11374443 103.41056969 131.1139679 101.66200256 C131.11327606 97.91787764 131.10551804 94.17380364 131.09765625 90.4296875 C131.09578948 87.82081123 131.0943668 85.21193461 131.09336853 82.60305786 C131.09027366 76.45871193 131.08208538 70.31438401 131.07201904 64.17004597 C131.05969758 56.48055495 131.0542607 48.79106094 131.04882812 41.1015625 C131.0391187 27.40102767 131.01908152 13.7005321 131 0 C149.81 0 168.62 0 188 0 C188.08032734 29.55599731 188.08032734 29.55599731 188.10050774 44.2592001 C188.11154801 52.17974208 188.1255168 60.10024148 188.15087891 68.02075195 C188.17096406 74.29633765 188.18375186 80.57189106 188.18817699 86.84750801 C188.19075909 90.16301182 188.1978124 93.47840312 188.21146011 96.79388237 C188.32411757 125.31920717 187.34312333 154.16045204 168 177 C167.29875 177.969375 166.5975 178.93875 165.875 179.9375 C154.92310439 192.69160629 137.92915048 199.30547675 122 203 C121.05898438 203.22558594 120.11796875 203.45117188 119.1484375 203.68359375 C91.16534645 209.15198755 58.1364986 204.70150438 34 189 C15.64200208 175.94200985 5.75885812 157.83896243 1.41067505 136.04637146 C-0.59394572 123.2452437 -0.25855609 110.36468339 -0.20278788 97.43988347 C-0.19013607 94.00464386 -0.1890988 90.56939933 -0.18673706 87.13414001 C-0.18056416 80.65348455 -0.16421119 74.17289797 -0.14403808 67.6922726 C-0.11933367 59.57676275 -0.10850788 51.4612413 -0.09765625 43.34570312 C-0.07827612 28.89708199 -0.03819577 14.4486108 0 0 Z " fill="#404041" transform="translate(767,641)"/>
<path d="M0 0 C18.81 0 37.62 0 57 0 C59.660625 6.31125 62.32125 12.6225 65.0625 19.125 C74.90034195 42.4390772 84.81255833 65.72119522 94.73680115 88.99859619 C99.62115432 100.45529009 104.49882876 111.91482179 109.375 123.375 C109.78227325 124.33209869 110.18954651 125.28919739 110.60916138 126.27529907 C115.0127524 136.6238863 119.41435215 146.97331692 123.8125 157.32421875 C124.20039703 158.23709656 124.58829407 159.14997437 124.98794556 160.09051514 C126.80792688 164.37382539 128.62762003 168.65725768 130.44677734 172.94091797 C130.93713974 174.09500153 130.93713974 174.09500153 131.43740845 175.2723999 C132.06809085 176.75735045 132.6981374 178.24257126 133.32748413 179.72808838 C134.80021936 183.20004246 136.28682708 186.66463723 137.80566406 190.11669922 C138.08809967 190.76247421 138.37053528 191.40824921 138.66152954 192.07359314 C139.42208032 193.80925904 140.18859521 195.54230813 140.95556641 197.27514648 C142 200 142 200 142 203 C121.87 203 101.74 203 81 203 C77.16307105 195.32614209 73.4713846 187.75152429 70.125 179.875 C69.7228125 178.94429687 69.320625 178.01359375 68.90625 177.0546875 C68.52726562 176.1678125 68.14828125 175.2809375 67.7578125 174.3671875 C67.24951904 173.17778564 67.24951904 173.17778564 66.73095703 171.96435547 C66 170 66 170 66 168 C40.26 168 14.52 168 -12 168 C-12.99 170.97 -13.98 173.94 -15 177 C-15.85603573 179.11738074 -16.74168051 181.22316761 -17.6640625 183.3125 C-18.14617187 184.40691406 -18.62828125 185.50132812 -19.125 186.62890625 C-19.62 187.74136719 -20.115 188.85382813 -20.625 190 C-21.37910156 191.71509766 -21.37910156 191.71509766 -22.1484375 193.46484375 C-25.86335621 201.86335621 -25.86335621 201.86335621 -27 203 C-28.84118029 203.09381302 -30.68597641 203.11743954 -32.52954102 203.11352539 C-33.71068985 203.11344986 -34.89183868 203.11337433 -36.10877991 203.11329651 C-37.3941716 203.10813522 -38.67956329 203.10297394 -40.00390625 203.09765625 C-41.9661338 203.09553383 -41.9661338 203.09553383 -43.96800232 203.09336853 C-47.45162859 203.0895441 -50.93521339 203.07971446 -54.41882324 203.06866455 C-57.97126708 203.05844882 -61.52371759 203.05387056 -65.07617188 203.04882812 C-72.05079832 203.03809212 -79.02539717 203.0210166 -86 203 C-84.35033356 197.88917728 -82.62806596 192.88466526 -80.4609375 187.96484375 C-79.72762207 186.28865967 -79.72762207 186.28865967 -78.97949219 184.57861328 C-78.18526855 182.77626221 -78.18526855 182.77626221 -77.375 180.9375 C-76.19791568 178.24722825 -75.02452278 175.55535327 -73.8515625 172.86328125 C-73.5421875 172.1538739 -73.2328125 171.44446655 -72.9140625 170.71356201 C-69.13746182 162.04093032 -65.44385317 153.33311581 -61.75 144.625 C-61.02718649 142.92179128 -60.30436744 141.21858492 -59.58154297 139.51538086 C-58.11710858 136.06413626 -56.65316875 132.6126823 -55.18945312 129.16113281 C-51.98346308 121.60222207 -48.77077313 114.04615936 -45.55847168 106.4899292 C-43.78869565 102.32674079 -42.01937108 98.16336053 -40.25 94 C-39.54166882 92.33333242 -38.83333549 90.66666575 -38.125 89 C-37.774375 88.175 -37.42375 87.35 -37.0625 86.5 C-33.875 79 -33.875 79 -32.81272888 76.50054932 C-32.10362227 74.83205599 -31.39452602 73.16355826 -30.68544006 71.49505615 C-28.92652228 67.35630145 -27.16743099 63.21762068 -25.40795898 59.07910156 C-22.07807925 51.24624632 -18.75009297 43.41259994 -15.42776489 35.57653809 C-13.85287663 31.86227605 -12.27706135 28.14840765 -10.70117188 24.43457031 C-9.94793991 22.65872582 -9.19516561 20.88268714 -8.44287109 19.10644531 C-7.40186297 16.64860035 -6.35930079 14.19142 -5.31640625 11.734375 C-5.00888931 11.00716248 -4.70137238 10.27994995 -4.38453674 9.53070068 C-3.00987543 6.29594723 -1.57304159 3.14608318 0 0 Z M28 71 C23.61756217 80.31217981 19.69674807 89.80998531 15.78686523 99.32763672 C14.67762164 102.02401255 13.56055885 104.71706872 12.44335938 107.41015625 C11.73649914 109.12740665 11.03010172 110.84484765 10.32421875 112.5625 C9.98992355 113.36558594 9.65562836 114.16867187 9.311203 114.99609375 C7.51560878 119.35526796 7.51560878 119.35526796 7 124 C21.19 124 35.38 124 50 124 C47.76153556 117.15856092 47.76153556 117.15856092 45.22241211 110.47753906 C44.90876205 109.71354797 44.595112 108.94955688 44.2719574 108.16241455 C43.94373489 107.371474 43.61551239 106.58053345 43.27734375 105.765625 C42.93119522 104.92457214 42.58504669 104.08351929 42.22840881 103.21697998 C41.13425513 100.56014861 40.03599515 97.90503886 38.9375 95.25 C38.19698355 93.4545434 37.45674676 91.65897142 36.71679688 89.86328125 C35.67524338 87.3356993 34.63330685 84.8082847 33.58909607 82.28179932 C32.03842695 78.52929219 30.49669475 74.77447855 29 71 C28.67 71 28.34 71 28 71 Z " fill="#3F3F41" transform="translate(1840,638)"/>
<path d="M0 0 C52.8 0 105.6 0 160 0 C160 16.17 160 32.34 160 49 C126.01 49 92.02 49 57 49 C57 59.56 57 70.12 57 81 C87.69 81 118.38 81 150 81 C150 96.18 150 111.36 150 127 C119.31 127 88.62 127 57 127 C57 151.09 57 175.18 57 200 C38.19 200 19.38 200 0 200 C0 134 0 68 0 0 Z " fill="#404040" transform="translate(1307,641)"/>
<path d="M0 0 C18.48 0 36.96 0 56 0 C56 49.83 56 99.66 56 151 C87.68 151 119.36 151 152 151 C152 167.17 152 183.34 152 200 C101.84 200 51.68 200 0 200 C0 134 0 68 0 0 Z " fill="#3F3F40" transform="translate(1545,641)"/>
<path d="M0 0 C18.48 0 36.96 0 56 0 C56 49.83 56 99.66 56 151 C87.68 151 119.36 151 152 151 C152 167.17 152 183.34 152 200 C101.84 200 51.68 200 0 200 C0 134 0 68 0 0 Z " fill="#404040" transform="translate(275,641)"/>
<path d="M0 0 C4.94327304 3.34772154 8.16083158 7.66271274 9.97265625 13.3359375 C10.78084545 21.2016859 11.03108087 28.88370548 5.97265625 35.3359375 C0.23383733 41.07475642 -4.99286037 43.47260794 -12.96484375 43.7734375 C-19.69539775 43.5636322 -24.06563063 42.09238337 -29 37.5 C-34.62195688 31.47400104 -36.55433031 26.14694014 -36.33203125 17.921875 C-35.43815971 10.33542684 -31.85516657 5.56490182 -26.125 0.74609375 C-18.32154829 -4.49980209 -8.23744092 -4.21589535 0 0 Z M-26.33984375 9.3984375 C-29.76610534 13.68352456 -30.52749681 17.92750275 -30.02734375 23.3359375 C-28.33865147 29.28262075 -24.99812319 32.84581577 -20.02734375 36.3359375 C-15.25048432 37.92822398 -10.56892146 38.33027404 -5.80078125 36.46484375 C-1.06405383 33.75940955 2.38304383 30.65120402 3.97265625 25.3359375 C4.71971253 19.98981596 4.68375272 15.78446735 2.28515625 10.8984375 C-1.32215241 6.90114952 -4.51602284 3.68372548 -10.078125 3.1328125 C-16.98616817 2.98964062 -21.37879207 4.41387372 -26.33984375 9.3984375 Z " fill="#3F3F41" transform="translate(2550.02734375,643.6640625)"/>
<path d="M0 0 C3.5578125 -0.0928125 3.5578125 -0.0928125 7.1875 -0.1875 C8.29387817 -0.22846802 8.29387817 -0.22846802 9.42260742 -0.27026367 C13.827366 -0.32558339 16.5179177 0.29171377 20 3 C21.43304064 5.86608129 21.30644155 7.81300783 21 11 C19 14.375 19 14.375 17 17 C18.32 19.31 19.64 21.62 21 24 C17.75 24.375 17.75 24.375 14 24 C11.8125 21.0625 11.8125 21.0625 10 18 C7.87880872 17.04768403 7.87880872 17.04768403 6 17 C6 19.31 6 21.62 6 24 C4.02 24 2.04 24 0 24 C0 16.08 0 8.16 0 0 Z M6 6 C6 8.31 6 10.62 6 13 C10.25731568 13.40749675 10.25731568 13.40749675 13.875 11.5 C14.24625 11.005 14.6175 10.51 15 10 C14.34 8.68 13.68 7.36 13 6 C10.69 6 8.38 6 6 6 Z " fill="#3F3F40" transform="translate(2527,653)"/>
</svg>
