<?xml version="1.0" encoding="UTF-8"?>
<svg version="1.1" xmlns="http://www.w3.org/2000/svg" width="1000" height="200">
<path d="M0 0 C22 0 22 0 26.0625 3.75 C27.06514623 5.82213554 28.0399819 7.90777382 29 10 C30.91550793 13.11832014 32.9683295 16.14400823 35 19.1875 C36.13824993 20.93956884 37.27358607 22.69353354 38.40625 24.44921875 C42.08919729 30.14261007 45.79338225 35.82200082 49.5 41.5 C51.37552846 44.37535598 53.25076064 47.25090503 55.12597656 50.12646484 C56.38814766 52.06181579 57.65052147 53.99703456 58.91308594 55.93212891 C60.73479793 58.72488769 62.55508287 61.51857136 64.375 64.3125 C64.92865234 65.16070312 65.48230469 66.00890625 66.05273438 66.8828125 C66.55869141 67.66011719 67.06464844 68.43742187 67.5859375 69.23828125 C68.25181885 70.259823 68.25181885 70.259823 68.93115234 71.30200195 C70 73 70 73 71 75 C71.33 50.25 71.66 25.5 72 0 C78.93 0 85.86 0 93 0 C93 36.96 93 73.92 93 112 C71 112 71 112 65.66015625 107.12109375 C63.78466797 103.92504883 63.78466797 103.92504883 62.0625 100.4375 C61.3928665 99.24213664 60.71445007 98.05165573 60.02783203 96.8659668 C58.63444561 94.44235339 57.28249658 92.00220141 55.95849609 89.54003906 C53.084416 84.25824511 49.71710563 79.30581946 46.375 74.3125 C45.15894008 72.45216453 43.94540056 70.59017911 42.734375 68.7265625 C40.08149592 64.65664396 37.42455987 60.58940218 34.765625 56.5234375 C33.72656006 54.93341919 33.72656006 54.93341919 32.66650391 53.3112793 C31.33109191 51.26791688 29.99486189 49.22508877 28.65771484 47.18286133 C27.76366943 45.8142395 27.76366943 45.8142395 26.8515625 44.41796875 C26.32385254 43.61125732 25.79614258 42.8045459 25.25244141 41.97338867 C24 40 24 40 23 38 C22.67 62.42 22.34 86.84 22 112 C14.74 112 7.48 112 0 112 C0 75.04 0 38.08 0 0 Z " fill="#00A9EB" transform="translate(492,44)"/>
<path d="M0 0 C14.317837 12.31272287 23.32443373 28.49593802 25.02001953 47.47363281 C26.31834602 67.34407768 20.39712642 85.87555212 7.19921875 101 C-5.67779297 114.41000062 -22.67834483 122.32300414 -41.22949219 122.8046875 C-57.97604725 122.9609366 -73.86305876 119.31180471 -87.16015625 108.45703125 C-85.48373301 104.20388339 -82.44256535 101.33601311 -79.28515625 98.14453125 C-78.75535156 97.58185547 -78.22554687 97.01917969 -77.6796875 96.43945312 C-76.10546875 94.84375 -76.10546875 94.84375 -73.16015625 92.45703125 C-69.81373514 92.91957744 -67.04979945 94.41357679 -64.03515625 95.89453125 C-51.74472472 101.54943725 -39.92642913 101.82101228 -27.16015625 97.45703125 C-14.71010749 91.81560291 -5.99693825 83.86600377 -0.78515625 71.08203125 C3.29092513 60.20066617 3.82214222 46.66457794 -0.90625 35.90625 C-1.32003906 35.09800781 -1.73382813 34.28976563 -2.16015625 33.45703125 C-2.58425781 32.59722656 -3.00835937 31.73742187 -3.4453125 30.8515625 C-9.79527362 19.15985136 -20.42582391 11.97013373 -33.03515625 8.08203125 C-46.81347948 5.34348253 -60.41386612 8.15143398 -72.0546875 15.90625 C-77.30207811 19.9608105 -81.82283885 25.0067864 -86.32324219 29.85424805 C-87.3697998 30.95700073 -87.3697998 30.95700073 -88.4375 32.08203125 C-89.05874756 32.75492188 -89.67999512 33.4278125 -90.32006836 34.12109375 C-92.16015625 35.45703125 -92.16015625 35.45703125 -94.20214844 35.3293457 C-97.54714072 33.8391141 -99.92547913 31.20379462 -102.47265625 28.64453125 C-103.03533203 28.11021484 -103.59800781 27.57589844 -104.17773438 27.02539062 C-105.7734375 25.4375 -105.7734375 25.4375 -108.16015625 22.45703125 C-107.91206339 18.86374442 -106.16669803 17.07813468 -103.6953125 14.59375 C-102.62639771 13.51540894 -102.62639771 13.51540894 -101.53588867 12.4152832 C-100.77252197 11.66593506 -100.00915527 10.91658691 -99.22265625 10.14453125 C-98.05730347 8.99440552 -98.05730347 8.99440552 -96.8684082 7.82104492 C-91.65456931 2.74748869 -86.51986883 -1.94017591 -80.16015625 -5.54296875 C-79.22042969 -6.08050781 -78.28070313 -6.61804688 -77.3125 -7.171875 C-52.6461653 -20.38029939 -21.69095906 -17.85807177 0 0 Z " fill="#00AAEB" transform="translate(211.16015625,77.54296875)"/>
<path d="M0 0 C59.29825368 0 59.29825368 0 69.19140625 9.875 C75.38400257 17.1509663 76.5117856 25.06367182 75.81640625 34.48828125 C74.52085022 42.22154866 69.63747928 47.79617297 64 53 C64.50789062 53.268125 65.01578125 53.53625 65.5390625 53.8125 C72.19117306 57.59946931 76.28626088 62.10513836 79.375 69.125 C81.15171636 80.14064142 80.79944914 89.78173033 74.52734375 99.21484375 C68.2754815 107.15160504 60.58433845 109.60391539 51 112 C34.17 112 17.34 112 0 112 C0 75.04 0 38.08 0 0 Z M22 18 C22 27.24 22 36.48 22 46 C27.754375 45.9071875 27.754375 45.9071875 33.625 45.8125 C34.82334473 45.80581299 36.02168945 45.79912598 37.25634766 45.79223633 C43.94752113 45.67180934 43.94752113 45.67180934 49.6875 42.59765625 C52.99796442 38.87897578 53.86403377 36.49562851 54.3125 31.5625 C53.891241 26.76014737 52.6100067 23.5061353 49.0625 20.1875 C45.4444359 18.10437218 42.14144161 17.87718633 38.015625 17.90234375 C37.17290039 17.90484131 36.33017578 17.90733887 35.46191406 17.90991211 C34.40198242 17.91901611 33.34205078 17.92812012 32.25 17.9375 C27.17625 17.9684375 27.17625 17.9684375 22 18 Z M22 63 C22 73.23 22 83.46 22 94 C26.00125 94.061875 30.0025 94.12375 34.125 94.1875 C36.00082764 94.22846802 36.00082764 94.22846802 37.91455078 94.27026367 C45.89027184 94.36735095 45.89027184 94.36735095 53 91 C57.7183352 85.77157451 58.29075739 82.59002008 58.21875 75.6953125 C57.79241856 70.44230014 54.84115818 67.36101341 51 64 C47.76248322 62.92082774 45.42248229 62.88574399 42.01953125 62.90234375 C40.97128174 62.90484131 39.92303223 62.90733887 38.84301758 62.90991211 C37.51294678 62.91901611 36.18287598 62.92812012 34.8125 62.9375 C30.584375 62.958125 26.35625 62.97875 22 63 Z " fill="#00AAEB" transform="translate(798,44)"/>
<path d="M0 0 C0.37511719 0.42410156 0.75023438 0.84820312 1.13671875 1.28515625 C-0.5219163 5.61020461 -3.73432225 8.3793445 -6.98828125 11.53515625 C-7.83326172 12.36660156 -7.83326172 12.36660156 -8.6953125 13.21484375 C-10.08014153 14.5762011 -11.47111329 15.93130484 -12.86328125 17.28515625 C-17.59054607 15.41684387 -22.25614202 13.41348013 -26.92578125 11.40625 C-38.24825773 7.0850389 -50.85813848 8.8451953 -61.78125 13.5390625 C-73.45904127 19.45044098 -81.39533918 28.70906909 -85.67578125 41.09765625 C-89.5076897 53.47588174 -88.65513975 66.28117483 -82.73828125 77.91015625 C-75.4535228 89.89195298 -65.44160682 97.78351014 -51.86328125 101.28515625 C-40.01170465 103.99246528 -27.50041333 102.15896866 -17.0625 95.84375 C-8.09951727 89.49165389 -0.55081568 81.09157007 7.13671875 73.28515625 C12.79801306 77.982826 17.98900779 83.03238997 23.13671875 88.28515625 C8.61038661 105.51715637 -7.30576452 121.45825424 -30.86328125 124.28515625 C-42.06073525 124.89769778 -53.19881966 125.11939499 -63.86328125 121.28515625 C-64.84167969 120.95644531 -65.82007813 120.62773437 -66.828125 120.2890625 C-83.32593215 114.15281248 -95.85694528 101.7161713 -103.86328125 86.28515625 C-111.38894453 69.05156696 -113.22295393 48.47628893 -106.33984375 30.6953125 C-102.17111066 21.06752418 -97.28219707 13.74141561 -89.86328125 6.28515625 C-89.198125 5.58519531 -88.53296875 4.88523437 -87.84765625 4.1640625 C-78.86223429 -4.63273419 -66.14638756 -10.39690272 -53.86328125 -12.71484375 C-53.1671875 -12.85535156 -52.47109375 -12.99585938 -51.75390625 -13.140625 C-34.78945625 -15.7873343 -12.90056454 -11.87284661 0 0 Z " fill="#FFB400" transform="translate(109.86328125,75.71484375)"/>
<path d="M0 0 C0.83668213 0.00563965 1.67336426 0.0112793 2.53540039 0.01708984 C17.02549025 0.30074118 29.88355635 5.75632063 40.37109375 15.83984375 C52.74728508 29.05085406 57.15846933 43.10402411 56.8984375 60.796875 C56.40082863 75.65142128 49.05998628 88.0685224 38.6875 98.3125 C38.13449219 98.88742188 37.58148438 99.46234375 37.01171875 100.0546875 C25.55754438 111.0256833 10.20539221 112.90181173 -4.83984375 112.62109375 C-16.31521649 112.14875134 -25.15153404 108.0430056 -34.3125 101.3125 C-35.37404297 100.56226563 -35.37404297 100.56226563 -36.45703125 99.796875 C-47.57431311 91.11355426 -53.79626562 77.46221819 -55.8359375 63.80859375 C-57.45701413 47.39969591 -53.40107034 33.27719785 -43.3125 20.3125 C-42.68472656 19.47460938 -42.05695313 18.63671875 -41.41015625 17.7734375 C-31.221979 5.82082732 -15.37377876 -0.10891251 0 0 Z M-22.3125 27.3125 C-23.611875 28.1478125 -23.611875 28.1478125 -24.9375 29 C-32.29471905 36.16360802 -36.34425695 46.03083523 -36.75 56.1875 C-36.48321725 66.14738919 -32.62129258 74.67226183 -25.875 81.9375 C-25.029375 82.72125 -24.18375 83.505 -23.3125 84.3125 C-22.590625 84.993125 -21.86875 85.67375 -21.125 86.375 C-13.66141092 91.51658359 -4.37939616 94.33125238 4.6875 93.3125 C16.08793627 90.91999378 24.75809312 86.16574126 31.40234375 76.44921875 C37.21510723 66.78483691 38.57060086 56.35270591 35.9921875 45.34375 C32.5619936 36.00439855 26.2658729 28.36236184 17.6875 23.3125 C3.09518834 17.18264417 -9.37534544 18.12566665 -22.3125 27.3125 Z " fill="#00AAEB" transform="translate(420.3125,43.6875)"/>
<path d="M0 0 C10.62051203 8.28205067 17.25658269 20.70008095 20.078125 33.703125 C21.44853124 51.25755642 19.70884524 65.23353356 9.078125 79.703125 C8.57796875 80.41082031 8.0778125 81.11851562 7.5625 81.84765625 C-0.05379395 91.59882048 -12.78530305 98.79215277 -24.921875 100.703125 C-36.6737921 101.75023107 -47.97559029 101.49964262 -58.921875 96.703125 C-59.8603125 96.30222656 -60.79875 95.90132813 -61.765625 95.48828125 C-76.12250284 88.53164803 -85.00141627 75.9822413 -90.16015625 61.24609375 C-94.74751202 45.93138296 -92.28418021 29.36570631 -84.796875 15.453125 C-76.74209731 2.60994444 -64.71218904 -6.60639357 -49.921875 -10.296875 C-49.19871094 -10.47863281 -48.47554687 -10.66039062 -47.73046875 -10.84765625 C-30.27978807 -13.63879433 -14.61376475 -9.86132093 0 0 Z M-66.3828125 23.48828125 C-71.40271327 30.71235164 -73.9180578 39.94794096 -72.921875 48.703125 C-70.29198563 60.7254764 -65.11047078 69.62321893 -54.921875 76.703125 C-45.11265814 81.64517319 -36.03734517 83.03915314 -25.421875 80.078125 C-16.27070058 77.05591266 -9.42566598 71.63752418 -3.921875 63.703125 C0.77477127 54.25290341 2.70185222 45.00494352 -0.046875 34.640625 C-3.37572799 24.79276824 -10.22828174 16.10398149 -19.58203125 11.3515625 C-37.42637361 4.04563146 -54.05067699 8.81923422 -66.3828125 23.48828125 Z " fill="#00AAEB" transform="translate(979.921875,55.296875)"/>
<path d="M0 0 C7.59 0 15.18 0 23 0 C28.24289514 13.77100181 33.1327423 27.65495749 38 41.5625 C45.11029876 61.8559771 45.11029876 61.8559771 52.35546875 82.1015625 C52.68644562 83.01757736 53.01742249 83.93359222 53.35842896 84.87736511 C54.89415032 89.12400441 56.43602919 93.36828069 57.98632812 97.60961914 C58.5261667 99.09777366 59.06588791 100.58597076 59.60546875 102.07421875 C59.97432442 103.07341843 59.97432442 103.07341843 60.35063171 104.09280396 C61.35971127 106.8870678 62 109.00039548 62 112 C54.74 112 47.48 112 40 112 C39.030625 109.1125 38.06125 106.225 37.0625 103.25 C36.75836182 102.34668945 36.45422363 101.44337891 36.14086914 100.51269531 C35.89973389 99.79178711 35.65859863 99.07087891 35.41015625 98.328125 C35.16402588 97.5949707 34.91789551 96.86181641 34.66430664 96.10644531 C34.02977133 94.0944017 33.51168433 92.04673733 33 90 C18.81 89.67 4.62 89.34 -10 89 C-10.99 93.95 -10.99 93.95 -12 99 C-12.63916604 101.20210791 -13.31875461 103.39347826 -14.0625 105.5625 C-14.57490234 107.08037109 -14.57490234 107.08037109 -15.09765625 108.62890625 C-16 111 -16 111 -17 112 C-18.63472882 112.08700342 -20.27314055 112.10701063 -21.91015625 112.09765625 C-22.89951172 112.09443359 -23.88886719 112.09121094 -24.90820312 112.08789062 C-25.94912109 112.07951172 -26.99003906 112.07113281 -28.0625 112.0625 C-29.10728516 112.05798828 -30.15207031 112.05347656 -31.22851562 112.04882812 C-33.8190666 112.03699913 -36.40950559 112.02051689 -39 112 C-31.83263323 89.88463225 -24.02086314 68.00199659 -16.23120117 46.10015869 C-12.60820364 35.90890881 -9.01860852 25.70603201 -5.4375 15.5 C-5.15588013 14.6976593 -4.87426025 13.8953186 -4.58410645 13.06866455 C-3.05520951 8.71274425 -1.52741108 4.35644202 0 0 Z M11 22 C8.85979617 28.79807187 6.72400002 35.59751684 4.59130859 42.39794922 C3.86479253 44.71272367 3.13725621 47.02717816 2.40869141 49.34130859 C1.36354471 52.66160455 0.32203492 55.98302211 -0.71875 59.3046875 C-1.04685669 60.34430634 -1.37496338 61.38392517 -1.7130127 62.45504761 C-2.16347961 63.89631516 -2.16347961 63.89631516 -2.62304688 65.36669922 C-2.88952026 66.21497284 -3.15599365 67.06324646 -3.43054199 67.93722534 C-4.08870332 69.9646584 -4.08870332 69.9646584 -4 72 C6.23 72 16.46 72 27 72 C25.67557457 65.37787286 24.28011466 59.16593401 22.25 52.78125 C21.9912207 51.95669312 21.73244141 51.13213623 21.46582031 50.28259277 C20.92383613 48.56094307 20.37921673 46.84012085 19.83203125 45.12011719 C18.99401139 42.48114151 18.16845585 39.83847522 17.34375 37.1953125 C16.81324009 35.51539111 16.28201611 33.835695 15.75 32.15625 C15.50411133 31.3667395 15.25822266 30.577229 15.00488281 29.76379395 C13.6807818 25.49597078 13.6807818 25.49597078 11 22 Z " fill="#00AAEB" transform="translate(723,44)"/>
<path d="M0 0 C0.83668213 0.00563965 1.67336426 0.0112793 2.53540039 0.01708984 C17.21394211 0.30443023 30.24097642 5.92742656 40.6875 16.3125 C36.57130164 21.23185902 32.28339638 25.83897956 27.6875 30.3125 C24.98616223 29.02416968 22.58106528 27.5778012 20.125 25.875 C12.11717994 20.83469613 2.8106551 18.94751454 -6.4140625 21.00390625 C-16.60532403 23.80357465 -24.29243771 28.50570265 -30.3125 37.3125 C-35.31933318 46.60633411 -36.92184651 56.04882081 -34.1875 66.375 C-31.01100528 75.8010634 -24.74125553 84.0833999 -15.75390625 88.59765625 C-3.91964634 93.50368673 5.81927282 93.17773599 17.6875 88.3125 C20.58474811 86.53690699 23.17137001 84.59298035 25.6875 82.3125 C29.76126031 83.92260527 32.45257069 86.85072271 35.4375 89.9375 C35.94410156 90.453125 36.45070313 90.96875 36.97265625 91.5 C38.21553902 92.76633339 39.45215276 94.0388144 40.6875 95.3125 C34.30970366 104.24141488 23.94412562 109.08097956 13.51953125 111.8984375 C-4.0920613 114.47337379 -19.85265499 111.99332448 -34.3125 101.3125 C-45.97453702 92.59168219 -53.06692274 80.2205138 -55.6875 65.9375 C-57.73675328 49.42524763 -54.11477078 34.71252731 -44.3125 21.3125 C-43.60287109 20.32636719 -43.60287109 20.32636719 -42.87890625 19.3203125 C-32.77834589 6.44424405 -15.99970661 -0.11334677 0 0 Z " fill="#00AAEB" transform="translate(323.3125,43.6875)"/>
<path d="M0 0 C31.35 0 62.7 0 95 0 C95 5.94 95 11.88 95 18 C82.79 18 70.58 18 58 18 C58 49.02 58 80.04 58 112 C51.07 112 44.14 112 37 112 C37 80.98 37 49.96 37 18 C24.79 18 12.58 18 0 18 C0 12.06 0 6.12 0 0 Z " fill="#00A9EB" transform="translate(600,44)"/>
<path d="M0 0 C1.05687012 0.01087646 2.11374023 0.02175293 3.20263672 0.03295898 C23.11506957 0.44055938 38.89887315 8.74954324 52.6875 22.9375 C60.89444219 32.41040667 65.64493073 43.13605555 68.0625 55.375 C60.4725 55.375 52.8825 55.375 45.0625 55.375 C44.051875 53.23 43.04125 51.085 42 48.875 C36.16159646 37.04695305 27.98152654 28.94422596 15.25 24.5 C1.98190952 20.67897748 -10.66383319 21.85697618 -22.9375 28.3125 C-25.74055542 29.87670503 -27.85211512 31.28946265 -30.125 33.56640625 C-31.9375 35.375 -31.9375 35.375 -33.9375 35.375 C-34.20691406 35.94476563 -34.47632813 36.51453125 -34.75390625 37.1015625 C-36.38519136 40.23492202 -38.39682404 43.05780666 -40.40234375 45.9609375 C-42.07734612 48.39314054 -42.07734612 48.39314054 -43.0390625 51.515625 C-45.16978693 54.72486427 -45.69060067 54.91713119 -49.24609375 55.8359375 C-50.95080309 56.16707762 -52.66099399 56.470946 -54.375 56.75 C-55.23416016 56.91371094 -56.09332031 57.07742187 -56.97851562 57.24609375 C-60.73563291 57.93980509 -64.09645891 58.375 -67.9375 58.375 C-65.31801871 40.70327546 -56.13866905 24.45316653 -42.0078125 13.46484375 C-38.45520772 11.04672217 -34.82639495 9.00993865 -31 7.0625 C-30.36860107 6.73717285 -29.73720215 6.4118457 -29.08666992 6.07666016 C-19.6466578 1.47090085 -10.45116575 -0.14657429 0 0 Z " fill="#00AAEB" transform="translate(110.9375,-0.375)"/>
</svg>
