<?xml version="1.0" encoding="UTF-8"?>
<svg version="1.1" xmlns="http://www.w3.org/2000/svg" width="2400" height="2400">
<path d="M0 0 C7.99569882 6.97571965 13.53897514 14.93838741 17.9296875 24.4921875 C18.27117325 25.22698334 18.612659 25.96177917 18.9644928 26.71884155 C22.63678065 34.68217454 26.08528594 42.74083529 29.51080322 50.81265259 C31.46481251 55.41594739 33.43005348 60.01444642 35.39453125 64.61328125 C35.79476501 65.55074692 36.19499878 66.48821259 36.60736084 67.4540863 C40.62909119 76.86480321 44.71415433 86.24744951 48.8125 95.625 C50.22027863 98.84755733 51.62782046 102.070218 53.03515625 105.29296875 C53.38024231 106.08315399 53.72532837 106.87333923 54.08087158 107.68746948 C57.82363463 116.26228428 61.53906277 124.84887344 65.25 133.4375 C65.57840881 134.19753326 65.90681763 134.95756653 66.24517822 135.7406311 C67.89833854 139.56684573 69.55107546 143.39324305 71.20361328 147.21972656 C74.19519596 154.14622526 77.19059518 161.0710736 80.18566895 167.99606323 C81.5229443 171.08811532 82.86002777 174.18025036 84.19711304 177.27238464 C86.83452921 183.37164547 89.47216706 189.47081031 92.11026001 195.56977844 C102.81284086 220.31296364 113.50228787 245.06180958 124.1875 269.8125 C126.25932961 266.70475558 127.78194205 263.51495199 129.3203125 260.12890625 C129.62878113 259.45494812 129.93724976 258.78098999 130.25506592 258.08660889 C131.27712511 255.85072348 132.29499544 253.61296144 133.3125 251.375 C134.03400999 249.79255869 134.75552704 248.21012059 135.47705078 246.62768555 C141.07130839 234.34063716 146.56926482 222.01178427 152.03686523 209.66796875 C157.1093125 198.21872843 162.2307606 186.79215381 167.375 175.375 C167.75733795 174.52630341 168.1396759 173.67760681 168.53359985 172.80319214 C170.04050885 169.45825602 171.54748165 166.11334867 173.05467224 162.76853943 C182.03692501 142.83223345 190.95408105 122.86664748 199.88208008 102.90600586 C204.75081052 92.02123643 209.62127267 81.1372464 214.50463867 70.2590332 C217.21323881 64.2243657 219.91246678 58.18573338 222.59765625 52.140625 C245.69545988 0.17293008 245.69545988 0.17293008 269.9140625 -10.375 C290.84461436 -18.39346494 314.84273582 -16.97091021 336.1875 -11.1875 C336.92452148 -10.99494629 337.66154297 -10.80239258 338.42089844 -10.60400391 C347.06291888 -8.30420434 354.83823505 -5.4249072 362.1875 -0.1875 C363.79625 0.92625 363.79625 0.92625 365.4375 2.0625 C373.0358947 9.6608947 377.78356257 20.57826528 378.3116985 31.3442772 C378.31131878 32.24763187 378.31093906 33.15098653 378.31054783 34.08171558 C378.31253888 35.12972271 378.31452993 36.17772983 378.31658131 37.25749475 C378.31366847 38.40243313 378.31075563 39.54737152 378.30775452 40.727005 C378.30903615 42.5587611 378.30903615 42.5587611 378.31034368 44.42752236 C378.31170607 47.81391618 378.30858051 51.20025222 378.30356562 54.58663905 C378.29924752 58.23961868 378.30070851 61.89259653 378.3014679 65.545578 C378.30199227 71.87356807 378.29885452 78.20154782 378.29323006 84.52953529 C378.28510332 93.67874467 378.28249863 102.82794907 378.28124207 111.97716167 C378.2790534 126.82112167 378.27239831 141.66507618 378.26293945 156.5090332 C378.25376056 170.92862928 378.24668206 185.34822386 378.24243164 199.76782227 C378.24203756 201.10103886 378.24203756 201.10103886 378.24163551 202.46118913 C378.24033047 206.92008918 378.23906676 211.37898924 378.23782361 215.83788931 C378.22745675 252.82943109 378.20902153 289.8209627 378.1875 326.8125 C353.7675 326.8125 329.3475 326.8125 304.1875 326.8125 C303.6925 188.2125 303.6925 188.2125 303.1875 46.8125 C288.82089929 78.55373506 288.82089929 78.55373506 274.5390625 110.33203125 C270.5379341 119.26837055 266.51891591 128.19664933 262.5 137.125 C262.12145874 137.96602264 261.74291748 138.80704529 261.35290527 139.67355347 C258.23917877 146.59141348 255.12491487 153.50903153 252.01062012 160.42663574 C249.29849734 166.45097825 246.58658 172.47541317 243.875 178.5 C243.49614655 179.3417276 243.11729309 180.1834552 242.72695923 181.0506897 C238.03876211 191.46755265 233.35728372 201.88736716 228.6875 212.3125 C225.08996638 220.34354913 221.48786594 228.37251733 217.87890625 236.3984375 C217.50223312 237.23613174 217.12556 238.07382599 216.73747253 238.93690491 C214.80514579 243.23319814 212.87112781 247.52872016 210.93432617 251.82299805 C207.6521771 259.10174592 204.37161556 266.38073664 201.14076233 273.68243408 C199.89038922 276.50695362 198.63383895 279.32870363 197.37667847 282.15020752 C196.80426661 283.43961371 196.23489218 284.73037382 195.66897583 286.02264404 C187.85223698 303.86733641 178.41519458 319.05264348 159.75 326.625 C149.67229176 330.47476338 139.58950885 331.1634171 128.88208008 331.12817383 C126.88812801 331.12502076 124.89419474 331.14933422 122.90039062 331.17382812 C104.3144054 331.18301546 87.75196799 326.84830659 74.13671875 313.85546875 C64.63982193 303.91599809 59.11174279 290.95329643 53.71841431 278.48733521 C52.01157095 274.54400153 50.27768756 270.61254492 48.546875 266.6796875 C48.18987015 265.86691849 47.8328653 265.05414948 47.46504211 264.2167511 C43.57882846 255.38907473 39.5449385 246.63078761 35.5 237.875 C30.02112939 226.00106278 24.59981995 214.1056286 19.26733398 202.16503906 C14.56410483 191.63729061 9.81776976 181.12933666 5.0625 170.625 C4.66017151 169.73616119 4.25784302 168.84732239 3.84332275 167.93154907 C1.78222915 163.37822677 -0.27920161 158.82505723 -2.34082031 154.27197266 C-4.75692574 148.93570361 -7.17168012 143.59882412 -9.5859375 138.26171875 C-10.17227715 136.96552361 -10.17227715 136.96552361 -10.77046204 135.6431427 C-12.34278164 132.16719741 -13.91504129 128.691225 -15.48727417 125.21524048 C-19.54208534 116.25070393 -23.59744859 107.2864198 -27.65634155 98.32373047 C-29.36153968 94.55824728 -31.06628344 90.79255846 -32.77099609 87.02685547 C-33.57269151 85.25624569 -34.37460196 83.48573326 -35.17675781 81.71533203 C-36.29939953 79.23756301 -37.42125135 76.75943758 -38.54296875 74.28125 C-39.01388191 73.24272888 -39.01388191 73.24272888 -39.49430847 72.18322754 C-43.31140618 63.74571781 -47.05108136 55.27569195 -50.8125 46.8125 C-51.1425 139.2125 -51.4725 231.6125 -51.8125 326.8125 C-76.2325 326.8125 -100.6525 326.8125 -125.8125 326.8125 C-125.85662972 289.97912261 -125.89354313 253.14577024 -125.91463066 216.31237396 C-125.91713193 211.95922582 -125.91972059 207.60607774 -125.92236328 203.25292969 C-125.9228879 202.38633313 -125.92341252 201.51973658 -125.92395304 200.62687953 C-125.93264453 186.61366607 -125.94840757 172.60046911 -125.96680559 158.58726542 C-125.98553963 144.19762093 -125.99662412 129.80798506 -126.00067699 115.41832888 C-126.00341479 106.54638468 -126.01204726 97.67448709 -126.02833293 88.80255724 C-126.0389431 82.71040305 -126.04209154 76.61827279 -126.03950275 70.52611004 C-126.03822771 67.01658194 -126.04011722 63.50713503 -126.05091095 59.99762154 C-126.06092612 56.17953349 -126.05844491 52.36164159 -126.05300903 48.54354858 C-126.05883472 47.45206241 -126.0646604 46.36057624 -126.07066262 45.23601472 C-126.01436792 30.51177792 -124.56745269 15.0341346 -113.98046875 3.8828125 C-86.18224473 -22.66323926 -29.50561032 -22.62096791 0 0 Z " fill="#00668C" transform="translate(230.8125,1270.1875)"/>
<path d="M0 0 C1.56022725 -0.00299845 3.12045376 -0.00640254 4.68067932 -0.01017761 C8.88971685 -0.01895343 13.098734 -0.02135304 17.30777979 -0.0219934 C19.94675434 -0.02270772 22.58572383 -0.02484924 25.22469711 -0.02749062 C34.45790685 -0.0367238 43.69110221 -0.04082817 52.92431641 -0.04003906 C61.48739533 -0.03943927 70.05041106 -0.04997696 78.61347401 -0.06578273 C86.00073988 -0.07892499 93.38798527 -0.08422015 100.77526271 -0.08358365 C105.17151866 -0.08333056 109.56771841 -0.08607579 113.96396255 -0.0967617 C118.105831 -0.1065557 122.2475908 -0.10644586 126.38946342 -0.09924507 C127.89491246 -0.098213 129.40036867 -0.10047822 130.90580559 -0.10660553 C145.23643529 -0.16107521 159.32603395 1.10510684 173.30419922 4.39526367 C174.23047119 4.61142334 175.15674316 4.82758301 176.11108398 5.05029297 C198.53550798 10.48446224 221.25513597 20.52877719 234.53076172 40.27416992 C243.97956659 56.1300411 245.69566005 71.31246034 245.62988281 89.38110352 C245.63395692 91.27836915 245.63930347 93.1756324 245.64581299 95.07289124 C245.65939448 100.18666987 245.65422559 105.30026526 245.64467573 110.41404676 C245.63702908 115.79171171 245.64413875 121.16936197 245.64883423 126.54702759 C245.65427823 135.57654609 245.64713683 144.60599077 245.6328125 153.63549805 C245.61649855 164.03856595 245.62177091 174.44145732 245.63829172 184.84452093 C245.65195718 193.81229792 245.65380132 202.78002213 245.64597571 211.74780619 C245.64132563 217.08799733 245.64060008 222.42810582 245.65058517 227.76829147 C245.65932622 232.79339948 245.65310417 237.81828261 245.6359024 242.84336662 C245.63197492 244.67496939 245.63300643 246.50659148 245.6396904 248.33818626 C245.70449727 267.92023002 243.83864502 286.91668437 230.24169922 302.14526367 C229.40058594 303.14299805 229.40058594 303.14299805 228.54248047 304.16088867 C222.53377618 310.78219405 214.91502845 314.75790342 207.24169922 319.14526367 C206.25169922 319.80526367 205.26169922 320.46526367 204.24169922 321.14526367 C204.66837891 321.51135742 205.09505859 321.87745117 205.53466797 322.25463867 C210.01613647 326.13549799 214.39573357 330.11433199 218.74169922 334.14526367 C222.20455602 337.35687529 225.66818286 340.55629191 229.24169922 343.64526367 C233.40736083 347.24608981 237.4276997 350.99917341 241.46435547 354.74291992 C244.94989885 357.96967586 248.48304975 361.12608987 252.07763672 364.23120117 C255.60997443 367.35547099 259.05365336 370.57649715 262.49951172 373.7956543 C265.14729456 376.25848172 267.81657597 378.62694653 270.64013672 380.88745117 C271.49865234 381.6325293 272.35716797 382.37760742 273.24169922 383.14526367 C273.24169922 383.80526367 273.24169922 384.46526367 273.24169922 385.14526367 C262.43646019 385.49491272 251.63259448 385.7603668 240.82282257 385.92244625 C235.80137983 386.00029681 230.78384285 386.10560281 225.76464844 386.27685547 C188.78347115 387.50593107 188.78347115 387.50593107 179.94226074 380.05409241 C177.58048988 377.55621141 175.58292988 374.96872173 173.68899536 372.10321045 C171.07147524 368.56214865 167.61701993 365.935253 164.24169922 363.14526367 C162.26300887 361.37495943 160.31839933 359.57058538 158.36669922 357.77026367 C153.82940018 353.59491441 149.28941855 349.42440597 144.65185547 345.36010742 C142.24169922 343.14526367 142.24169922 343.14526367 139.92529297 340.58666992 C136.53469809 337.00615704 134.00723449 334.37201156 128.97929382 333.72627258 C127.78673477 333.76310654 126.59417572 333.79994049 125.36547852 333.83789062 C124.38230793 333.8618552 124.38230793 333.8618552 123.37927532 333.8863039 C116.92266207 334.07377702 110.4767699 334.52758157 104.03455162 334.98253822 C82.21013319 336.48081151 60.3788141 336.48622198 38.51245117 336.4609375 C32.99455755 336.45509249 27.47699414 336.47226429 21.95915508 336.49528217 C17.61680746 336.5101576 13.27453755 336.51087379 8.93216896 336.50777245 C6.89889676 336.50827647 4.8656191 336.51333518 2.83237267 336.52358437 C-32.64147206 336.68090433 -71.51663793 330.00159594 -97.89501953 304.21948242 C-109.96635062 291.71977467 -115.91871971 275.20973128 -115.89874268 257.94967651 C-115.9017138 257.14038983 -115.90468492 256.33110316 -115.90774608 255.49729264 C-115.9163962 252.7938388 -115.9179382 250.09042945 -115.91943359 247.38696289 C-115.92406443 245.44498094 -115.92908944 243.50299989 -115.93447876 241.5610199 C-115.94758033 236.29007675 -115.95404349 231.01914633 -115.95848942 225.74818945 C-115.96142413 222.45180561 -115.96552972 219.15542522 -115.96999359 215.85904312 C-115.98366342 205.53592091 -115.99333226 195.21280661 -115.99719548 184.88967597 C-116.00167328 172.99107943 -116.01921046 161.09259794 -116.04819608 149.19403636 C-116.06984684 139.9853091 -116.0799016 130.77661411 -116.0812366 121.56786168 C-116.08228231 116.07340322 -116.08814018 110.57905299 -116.10605621 105.08462143 C-116.12259533 99.91191796 -116.12466411 94.73940338 -116.11591721 89.56668282 C-116.11514992 87.67534566 -116.11944856 85.7839981 -116.12937546 83.89268684 C-116.23596703 62.30666967 -111.3083723 45.12963236 -95.93017578 29.25854492 C-70.90457249 5.86276033 -32.78480595 -0.01268462 0 0 Z M-29.63330078 64.89526367 C-37.11225438 74.50986802 -37.33928632 84.28917721 -37.27587891 95.97094727 C-37.28130758 97.65737002 -37.28843441 99.34378802 -37.29711914 101.03019714 C-37.31526968 105.58617005 -37.30831859 110.14177841 -37.2956028 114.69775724 C-37.28542874 119.48207757 -37.29488097 124.26636806 -37.30114746 129.0506897 C-37.30841249 137.08520063 -37.29886773 145.11956421 -37.27978516 153.15405273 C-37.25803346 162.4188302 -37.26506003 171.68325527 -37.28709078 180.94802415 C-37.30529519 188.92544787 -37.30777809 196.90276604 -37.2973361 204.88020384 C-37.29112689 209.63461487 -37.29019392 214.38886079 -37.30348206 219.14326096 C-37.31511305 223.61682525 -37.30688374 228.08993946 -37.28390503 232.56345558 C-37.27865575 234.19677423 -37.28006617 235.83013133 -37.28895569 237.46343422 C-37.35917196 251.68558418 -35.19786669 264.53168609 -24.86376953 275.07885742 C-10.67273877 287.3215834 9.17086229 287.46877849 26.92138672 287.34057617 C28.4707928 287.33683416 30.02020128 287.33399283 31.5696106 287.33200073 C35.5972578 287.32445761 39.62475484 287.30489237 43.65234375 287.28259277 C47.78236868 287.26193037 51.91241847 287.25295595 56.04248047 287.24291992 C64.10895472 287.2216351 72.17530816 287.18761575 80.24169922 287.14526367 C76.04247174 282.93766568 71.7666513 278.83432978 67.42919922 274.77026367 C66.41889648 273.81893555 66.41889648 273.81893555 65.38818359 272.84838867 C61.37214539 269.08215189 57.28876288 265.41268006 53.13256836 261.80200195 C50.32761453 259.34436261 47.59599696 256.81124544 44.86669922 254.27026367 C34.96191712 245.02417902 34.96191712 245.02417902 24.67919922 236.20776367 C22.24169922 234.14526367 22.24169922 234.14526367 21.24169922 232.14526367 C32.04801696 231.92710106 42.85201626 231.79210056 53.66057587 231.75923252 C58.68150016 231.74143655 63.69893351 231.69649369 68.71875 231.58642578 C105.69995433 230.80784479 105.69995433 230.80784479 114.5411377 238.27049255 C116.89939145 240.76120403 118.89885235 243.34144641 120.79525757 246.19622803 C123.41752671 249.72965506 126.87305528 252.35212418 130.24169922 255.14526367 C131.33930676 256.13554411 132.43165573 257.1317342 133.51513672 258.13745117 C134.2799939 258.84720093 134.2799939 258.84720093 135.06030273 259.57128906 C135.57391357 260.04945068 136.08752441 260.5276123 136.61669922 261.02026367 C140.66239458 264.76815993 144.71604894 268.5060855 148.80419922 272.20776367 C149.56861328 272.89999023 150.33302734 273.5922168 151.12060547 274.30541992 C151.82056641 274.91256836 152.52052734 275.5197168 153.24169922 276.14526367 C153.89009766 276.74209961 154.53849609 277.33893555 155.20654297 277.95385742 C157.20339529 279.3622066 157.20339529 279.3622066 159.70654297 279.08666992 C165.91670076 276.78058667 170.80838097 270.56168688 173.74169922 264.77026367 C175.79898041 259.79850079 176.37137283 256.38864767 176.38887024 251.01829529 C176.39254693 250.28774825 176.39622362 249.55720121 176.40001172 248.80451638 C176.41104937 246.34965098 176.41489258 243.89482791 176.41870117 241.43994141 C176.42496591 239.68234625 176.43161272 237.92475241 176.43861389 236.16716003 C176.45966065 230.38773522 176.47001888 224.60831013 176.47998047 218.82885742 C176.48402821 216.83832345 176.48814514 214.84778962 176.49233055 212.85725594 C176.5113859 203.50268987 176.52561455 194.1481317 176.53394252 184.79354995 C176.54370771 174.00306062 176.57000706 163.21277682 176.61044341 152.42235988 C176.64063649 144.07826136 176.65541455 135.73422162 176.65872353 127.39006954 C176.66107096 122.40866516 176.66999099 117.42748024 176.69518471 112.44613457 C176.71852537 107.75522312 176.7226746 103.06467471 176.71242332 98.37372017 C176.71192926 96.65730708 176.71821135 94.94087576 176.73197937 93.22451782 C176.82298439 81.20120132 175.99076483 71.11523151 167.35498047 61.96166992 C149.76301567 46.84103474 124.87533069 48.84007101 103.27294922 48.87963867 C100.66231246 48.87828859 98.05167595 48.8763452 95.44104004 48.87384033 C89.99127135 48.87022355 84.54155724 48.87493911 79.09179688 48.88452148 C72.83253557 48.8954016 66.57340467 48.89187439 60.31414652 48.88086867 C54.23956005 48.87062393 48.1650304 48.87180366 42.09043884 48.87763214 C39.52945436 48.87895655 36.96846649 48.87736381 34.40748596 48.87267303 C-0.35311114 48.23388848 -0.35311114 48.23388848 -29.63330078 64.89526367 Z " fill="#CE8B2B" transform="translate(1553.75830078125,1261.854736328125)"/>
<path d="M0 0 C4.56666485 3.50772807 8.95179495 7.26401063 13.26196289 11.08227539 C19.94421455 16.91423258 25.14066914 19.48982545 33.98046875 19.66796875 C35.77758185 19.7427587 37.57461794 19.81941661 39.37158203 19.89770508 C40.30987854 19.93344635 41.24817505 19.96918762 42.21490479 20.00601196 C64.06366336 20.89936448 84.05193482 24.65995401 104.9375 30.9375 C105.93426758 31.22560547 106.93103516 31.51371094 107.95800781 31.81054688 C118.91494495 34.99198485 128.97038774 39.40293098 138.9375 44.9375 C139.71448242 45.36853027 140.49146484 45.79956055 141.29199219 46.24365234 C153.34855002 53.01212135 164.94018148 60.45772818 176.4375 68.125 C177.05772034 68.53834595 177.67794067 68.95169189 178.31695557 69.37756348 C190.22063042 77.32861644 201.96575258 85.51761039 213.3125 94.25 C214.01455566 94.78923096 214.71661133 95.32846191 215.43994141 95.8840332 C226.04305397 104.06679281 236.5048739 112.39331189 246.3125 121.5234375 C247.6965732 122.79629053 249.08651393 124.06405033 250.51977539 125.28125 C257.15826649 130.92755844 263.27889619 137.09281329 269.43676758 143.25146484 C271.36194702 145.17446182 273.29499031 147.08930574 275.22851562 149.00390625 C281.52993425 155.27731002 287.55189265 161.57172183 293.04736328 168.57373047 C295.05817036 171.08840809 297.1879832 173.45033032 299.375 175.8125 C304.06835609 180.98328369 308.32793549 186.44137792 312.50830078 192.02832031 C313.49808799 193.35051641 314.49150116 194.67000295 315.48779297 195.98730469 C327.78730099 212.2616313 339.23825243 229.13074292 349.9375 246.5 C350.33348389 247.1401001 350.72946777 247.7802002 351.13745117 248.43969727 C357.94127489 259.66819753 363.7069342 271.17982066 368.55126953 283.36853027 C370.02167161 287.06174973 371.52527859 290.74144401 373.02734375 294.421875 C373.3419455 295.19364075 373.65654724 295.96540649 373.98068237 296.76055908 C390.60633643 337.40197854 409.45376838 377.1413045 429.1640625 416.3671875 C431.67753637 421.37056036 434.11327761 426.39579103 436.43457031 431.49194336 C443.15741207 446.20920625 449.13549882 456.96765593 464.75 463 C475.98613042 467.47195178 486.96802901 472.39603873 497.91748047 477.52587891 C500.9409943 478.93913331 503.9720944 480.33512124 507.00390625 481.73046875 C518.5276139 487.07938266 529.40536778 492.83378298 539.9375 499.9375 C540.67387695 500.42976074 541.41025391 500.92202148 542.16894531 501.42919922 C558.89544101 512.63490375 575.22507079 524.34779257 590.9375 536.9375 C591.82824219 537.64519531 592.71898438 538.35289062 593.63671875 539.08203125 C596.07770546 541.02485741 598.50940042 542.9785984 600.9375 544.9375 C601.83082031 545.65550781 602.72414063 546.37351562 603.64453125 547.11328125 C618.09599332 558.81593375 630.8763775 571.18267621 641.8828125 586.20703125 C643.5085429 588.36746006 645.1644298 590.33692869 647 592.3125 C649.34766308 595.49320481 649.1019615 597.08591784 648.9375 600.9375 C629.06871715 607.29508167 609.94478619 611.65181229 589.25143433 614.19033813 C579.72445473 615.36474936 570.49429925 616.82377585 561.22119141 619.32958984 C557.31617573 620.36909049 553.39183295 621.33151224 549.47045898 622.30712891 C547.32717216 622.84107781 545.18471307 623.37836351 543.04321289 623.91943359 C542.06473389 624.1664502 541.08625488 624.4134668 540.078125 624.66796875 C539.20704102 624.88864014 538.33595703 625.10931152 537.43847656 625.33666992 C534.94820472 625.93492832 532.45196607 626.45201983 529.9375 626.9375 C539.35501742 645.6135894 558.72342035 654.96676646 576.125 665 C603.92341294 681.0503773 630.23790076 702.99136144 649 729.1875 C652.68367054 734.17664719 657.48695947 737.87144083 662.203125 741.84765625 C669.88578545 748.837832 675.35401185 758.5656526 676.9375 768.9375 C670.87177051 767.23151358 666.71610588 762.54964562 662.2421875 758.34375 C655.69976004 752.35874909 648.34035655 747.48667942 641.07421875 742.43652344 C638.53182701 740.65289852 636.02456536 738.82456764 633.51831055 736.99072266 C617.53741938 725.36700877 600.19977271 717.07789172 582.43457031 708.60839844 C564.07979495 699.838496 547.23430407 690.13279733 530.9375 677.9375 C530.30859863 677.46989258 529.67969727 677.00228516 529.03173828 676.52050781 C508.9203232 661.52946674 486.57594402 640.98724622 481.14453125 615.16796875 C480.9375 611.9375 480.9375 611.9375 482.6875 609.25 C487.17482672 606.05709445 491.73163765 604.64972715 496.9375 602.9375 C498.43777245 602.39889709 499.93635446 601.85557184 501.43359375 601.30859375 C531.21591886 590.48215991 561.08573083 586.14218524 592.6875 585.375 C594.36719562 585.33169383 596.04688323 585.28807623 597.7265625 585.24414062 C601.79679183 585.13834214 605.86710567 585.036739 609.9375 584.9375 C603.04155038 574.46135234 593.39288961 568.83334466 582.97070312 562.23046875 C576.43199634 558.0723286 570.02763867 553.73047521 563.72583008 549.22314453 C555.06239224 543.03788025 546.27463113 537.03831341 537.44076538 531.09991455 C536.00100309 530.13060658 534.56313459 529.1584786 533.12734985 528.18328857 C520.62553638 519.70006531 508.15749005 512.71999569 493.8125 507.75 C492.78552002 507.38616211 491.75854004 507.02232422 490.70043945 506.64746094 C484.06953579 504.31858652 477.40824415 502.08500613 470.73828125 499.87109375 C469.94454102 499.60750565 469.15080078 499.34391754 468.33300781 499.07234192 C464.39992032 497.76795447 460.46461444 496.47101084 456.52490234 495.18676758 C437.23016104 488.86675834 423.55417618 482.79649682 412.8125 464.9375 C412.34440918 464.16188721 411.87631836 463.38627441 411.39404297 462.5871582 C400.64838327 444.52981662 391.92509575 425.58041224 383.46191406 406.3828125 C381.25972738 401.4056731 379.01551219 396.44859445 376.75 391.5 C376.32195068 390.56478516 375.89390137 389.62957031 375.45288086 388.66601562 C371.80585152 380.74192695 368.06037761 372.86571213 364.31152344 364.98950195 C345.5676799 325.60685307 345.5676799 325.60685307 337.98071289 305.56713867 C326.98245386 276.62862566 310.92133789 250.06519721 292.9375 224.9375 C292.3894873 224.17163574 291.84147461 223.40577148 291.27685547 222.61669922 C284.64973583 213.40013847 277.87612508 204.39912104 270.4296875 195.828125 C268.13219174 193.16331801 265.93653788 190.44336283 263.75 187.6875 C254.70816833 176.60240743 244.51902152 166.44413679 234.4375 156.3125 C233.48701782 155.35500854 233.48701782 155.35500854 232.51733398 154.37817383 C228.7195967 150.5933896 224.79876699 147.00491986 220.74121094 143.50048828 C218.55639788 141.60725964 216.43609705 139.64893146 214.3125 137.6875 C208.68993324 132.62204732 202.78999905 127.96621403 196.78955078 123.36132812 C195.58411077 122.43460441 194.38178237 121.50381443 193.18310547 120.56835938 C160.10635498 94.7568622 123.42155641 73.24355011 83.9375 58.9375 C82.72964844 58.48503906 81.52179688 58.03257812 80.27734375 57.56640625 C74.37396114 55.52895562 68.60740212 54.54076741 62.42578125 53.91796875 C61.60324356 53.83303162 60.78070587 53.74809448 59.9332428 53.6605835 C53.63838392 53.03990277 47.343128 52.63217101 41.02734375 52.296875 C40.11254242 52.24603256 39.19774109 52.19519012 38.25521851 52.14280701 C32.63858898 51.83084265 32.63858898 51.83084265 27.01977539 51.56201172 C6.70474657 50.6453346 6.70474657 50.6453346 -1.0625 43.9375 C-1.93261719 43.21046875 -2.80273438 42.4834375 -3.69921875 41.734375 C-4.37597656 41.05890625 -5.05273438 40.3834375 -5.75 39.6875 C-22.12334223 24.55226544 -43.38421628 15.21451298 -63.625 6.4375 C-64.75317139 5.94523926 -65.88134277 5.45297852 -67.04370117 4.94580078 C-85.14214885 -2.87590164 -85.14214885 -2.87590164 -104.37890625 -2.4375 C-108.14262815 -0.88487807 -110.5141287 1.00342067 -112.625 4.5 C-115.01079472 10.38352092 -114.63454542 15.93138691 -112.32519531 21.81640625 C-110.1834063 26.67524835 -107.6725558 31.31716156 -105.0625 35.9375 C-104.5365625 36.88496094 -104.010625 37.83242188 -103.46875 38.80859375 C-99.47967745 45.49436075 -94.52204015 51.31183219 -89.53320312 57.25756836 C-83.77229906 64.16898033 -78.62657461 71.41933796 -73.53466797 78.83007812 C-72.06836821 80.9290996 -70.56069957 82.99060138 -69.03515625 85.046875 C-49.22637754 111.89679439 -39.8955894 142.88809794 -30.02783203 174.33660889 C-23.72166239 194.39638445 -16.73552973 213.72630327 -6.0625 231.9375 C-5.68544922 232.58267578 -5.30839844 233.22785156 -4.91992188 233.89257812 C0.14538563 242.38618174 5.93553442 249.24589217 13.08740234 256.06420898 C17.41569024 260.23787219 20.59710497 264.34147165 22.9375 269.9375 C23.2675 270.5975 23.5975 271.2575 23.9375 271.9375 C25.31443101 287.5126213 20.30264496 301.63603293 14.79168701 315.93408203 C4.64277579 342.41780318 0.51445105 368.26408942 0.625 396.5625 C0.62682281 397.53172394 0.62864563 398.50094788 0.63052368 399.49954224 C0.67587863 413.82742137 1.07145334 427.85332728 3.9375 441.9375 C4.10910645 442.81229004 4.28071289 443.68708008 4.45751953 444.58837891 C8.57619237 465.03451618 15.40150143 487.13382283 27.7734375 504.203125 C28.9375 505.9375 28.9375 505.9375 29.9375 508.9375 C31.65269747 509.96401373 31.65269747 509.96401373 33.9375 510.9375 C35.10665792 511.64171373 36.27313551 512.35038867 37.4375 513.0625 C40.86338747 515.25231428 40.86338747 515.25231428 44.9375 514.9375 C45.0015654 514.38722641 45.0656308 513.83695282 45.13163757 513.27000427 C45.81626401 507.40937142 46.51709331 501.55082087 47.22631836 495.69311523 C47.48710186 493.52268747 47.74409315 491.35179984 47.99682617 489.18041992 C49.36281409 477.46768456 50.96769285 465.89065775 53.46484375 454.359375 C53.66623459 453.42939194 53.86762543 452.49940887 54.07511902 451.54124451 C57.73386157 435.39316876 64.8803001 421.3790782 75.58203125 408.76171875 C79.57297382 403.97655875 83.23754864 398.94949085 86.9375 393.9375 C88.81640625 394.20703125 88.81640625 394.20703125 90.9375 394.9375 C94.01907147 399.38865879 95.42349607 405.30127632 97.1875 410.375 C99.83235171 417.797336 102.84036991 425.03190294 106 432.25 C106.27995819 432.89235596 106.55991638 433.53471191 106.84835815 434.1965332 C115.90803471 454.95798611 125.74651849 475.23587769 136.9375 494.9375 C137.56253418 496.04077637 138.18756836 497.14405273 138.83154297 498.28076172 C151.92151773 521.31572776 166.13021631 543.65631594 181.9375 564.9375 C182.52289551 565.72688965 182.52289551 565.72688965 183.12011719 566.53222656 C194.44900599 581.73750624 206.71301218 597.43608518 222.2578125 608.5 C223.9375 609.9375 223.9375 609.9375 224.9375 612.9375 C225.5975 612.9375 226.2575 612.9375 226.9375 612.9375 C226.9375 613.5975 226.9375 614.2575 226.9375 614.9375 C216.12103673 613.23083336 208.91963808 605.3588682 201.6875 597.75 C194.83328952 590.7134453 187.99393347 584.20527349 180.12890625 578.33203125 C160.02377362 563.24702965 140.11363763 544.95327207 124.9375 524.9375 C124.15890625 523.92945313 123.3803125 522.92140625 122.578125 521.8828125 C115.80491723 513.00681147 110.44847329 504.24537993 105.75 494.125 C100.77898724 483.5612772 95.46754716 473.21786967 89.9375 462.9375 C87.07667627 477.766103 84.38092772 492.57807847 82.45800781 507.56176758 C80.82839821 519.47805683 78.35652702 532.45831134 68.90234375 540.71484375 C60.94833529 546.4523913 51.72954088 549.26195538 41.9375 547.9375 C22.24597653 543.00067329 9.36662664 526.95581933 -0.68261719 510.31835938 C-34.10347597 452.65377784 -30.8319496 381.47781004 -14.2980957 319.31347656 C-13.79575542 317.43854678 -13.29307495 315.56370811 -12.79003906 313.68896484 C-12.07413353 310.98149659 -11.38769447 308.26827443 -10.7109375 305.55078125 C-10.49566406 304.69774414 -10.28039063 303.84470703 -10.05859375 302.96582031 C-9.66103747 301.38747188 -9.26980361 299.80750906 -8.88671875 298.22558594 C-7.72610976 293.67575174 -6.12227948 289.77975255 -3.82348633 285.67944336 C-2.82842916 283.79194839 -2.82842916 283.79194839 -3.375 280.9375 C-5.23026963 277.63924288 -7.35635366 275.02939604 -9.91796875 272.2578125 C-10.62566406 271.49210937 -11.33335937 270.72640625 -12.0625 269.9375 C-12.58884033 269.37232666 -13.11518066 268.80715332 -13.6574707 268.22485352 C-18.07234859 263.35583238 -21.56713061 258.29411017 -24.875 252.625 C-25.38925537 251.75109619 -25.90351074 250.87719238 -26.43334961 249.97680664 C-27.99219316 247.30577475 -29.53137088 244.62450117 -31.0625 241.9375 C-31.50529297 241.16470703 -31.94808594 240.39191406 -32.40429688 239.59570312 C-44.70851512 217.88795291 -52.75662926 194.35401347 -60.9375 170.875 C-61.30416779 169.82600525 -61.67083557 168.7770105 -62.0486145 167.69622803 C-65.83886784 156.82190055 -69.56354673 145.97543563 -72.37460327 134.79978943 C-75.77309572 121.65854616 -83.98877544 110.61329084 -92.0625 99.9375 C-92.66690918 99.13473633 -93.27131836 98.33197266 -93.89404297 97.50488281 C-100.50191948 88.74116415 -107.17080068 80.02994596 -114 71.4375 C-118.99452142 65.13387851 -123.61668636 58.64108958 -128.0625 51.9375 C-128.61679688 51.12152344 -129.17109375 50.30554688 -129.7421875 49.46484375 C-139.03583777 35.04283207 -143.77151804 17.52903052 -140.37890625 0.5078125 C-138.25894826 -6.26549725 -135.0206459 -12.19576867 -131.0625 -18.0625 C-130.464375 -18.97 -129.86625 -19.8775 -129.25 -20.8125 C-96.40421945 -54.59673143 -30.74536094 -21.82651717 0 0 Z " fill="#00668C" transform="translate(1618.0625,595.0625)"/>
<path d="M0 0 C24.42 0 48.84 0 74 0 C74.06622822 33.23230335 74.12158528 66.46454226 74.15319599 99.69689181 C74.15694778 103.62686679 74.16083078 107.55684163 74.16479492 111.48681641 C74.16558185 112.26915112 74.16636878 113.05148584 74.16717956 113.85752767 C74.18020717 126.49849952 74.20384632 139.13943012 74.23145839 151.78037757 C74.25958642 164.76655476 74.27619184 177.75271047 74.28226548 190.73891687 C74.28636664 198.74180791 74.29928471 206.74458236 74.3237494 214.74743748 C74.34159278 220.90054587 74.34334706 227.05356674 74.33932304 233.20669746 C74.34014405 235.71879859 74.34605327 238.2309044 74.35761642 240.74297905 C74.50430063 274.27255251 74.50430063 274.27255251 67.5 287.25 C67.15815674 287.90419922 66.81631348 288.55839844 66.46411133 289.23242188 C54.37271343 311.22165735 30.74498275 322.44559436 7.64453125 329.26123047 C3.53910422 330.40811213 -0.58346706 331.41383603 -4.75 332.3125 C-5.43223633 332.45977539 -6.11447266 332.60705078 -6.81738281 332.75878906 C-22.84688526 335.93493641 -38.6854682 336.28200394 -54.96118164 336.22705078 C-57.32819107 336.22648547 -59.69520085 336.22680556 -62.06221008 336.22793579 C-68.43706447 336.22850564 -74.81184239 336.21681138 -81.18667912 336.20278788 C-87.18924353 336.19149514 -93.19180828 336.18953593 -99.19438129 336.18748413 C-111.07011285 336.18312541 -122.94581667 336.16986627 -134.8215332 336.15087891 C-146.34594587 336.13247258 -157.87035096 336.11833945 -169.39477539 336.10986328 C-170.10718803 336.10933783 -170.81960067 336.10881239 -171.55360157 336.10827102 C-175.12817784 336.10566062 -178.70275416 336.10313328 -182.27733052 336.10064721 C-211.85157462 336.0799716 -241.42577854 336.04313287 -271 336 C-271 319.83 -271 303.66 -271 287 C-264.08087646 286.98541748 -257.16175293 286.97083496 -250.03295898 286.95581055 C-227.84922345 286.90696733 -205.66554535 286.84353461 -183.48187551 286.77101372 C-180.03129301 286.75974667 -176.58071012 286.74860804 -173.13012695 286.73754883 C-172.4432296 286.73534514 -171.75633224 286.73314146 -171.04861981 286.730871 C-159.95250581 286.69557842 -148.85639187 286.67066903 -137.76024269 286.64965298 C-126.35942698 286.62782665 -114.95869747 286.59449256 -103.55794007 286.55129844 C-97.16068433 286.52742093 -90.76350827 286.50865629 -84.36620903 286.50238609 C-78.33582913 286.49631051 -72.30565295 286.47622149 -66.27534866 286.44572449 C-64.07084763 286.43698381 -61.86631993 286.43321337 -59.66180229 286.43499184 C-41.38988682 286.44507168 -20.58256069 286.30440515 -6.5546875 272.7421875 C0.47640033 264.86312928 -0.85125311 253.31329539 -0.9375 243.375 C-0.94426758 241.86873047 -0.94426758 241.86873047 -0.95117188 240.33203125 C-0.96281033 237.88795529 -0.9791576 235.4440118 -1 233 C-1.80339593 233.00184359 -2.60679186 233.00368717 -3.43453312 233.00558662 C-23.08719511 233.04997749 -42.73984693 233.08295873 -62.39254856 233.10362434 C-71.89689002 233.11388664 -81.40119777 233.12784899 -90.90551758 233.15087891 C-99.20057591 233.17096888 -107.4956098 233.18375298 -115.79069179 233.18817699 C-120.17277903 233.19075828 -124.55479644 233.19671669 -128.93686104 233.21146011 C-174.25787026 233.35777979 -222.91173149 231.58683693 -257.8125 198.625 C-267.78207468 188.23927248 -273.13099228 176.39866573 -273.12025452 162.02079773 C-273.12110894 161.33048881 -273.12196337 160.64017989 -273.12284368 159.92895252 C-273.12448688 157.62277437 -273.11899616 155.31666945 -273.11352539 153.01049805 C-273.11324324 151.35460919 -273.11340179 149.69872021 -273.1139679 148.04283142 C-273.11425479 143.55152424 -273.10837543 139.06024376 -273.10139394 134.56894279 C-273.0951425 129.87374745 -273.09455518 125.17855151 -273.09336853 120.48335266 C-273.0902605 111.59410548 -273.08205421 102.70487059 -273.07201904 93.81562883 C-273.05875148 81.80233443 -273.05335373 69.78903668 -273.04751682 57.77573681 C-273.03811399 38.85048199 -273.01819153 19.92525313 -273 1 C-248.58 1 -224.16 1 -199 1 C-198.98582031 12.79492188 -198.97164062 24.58984375 -198.95703125 36.7421875 C-198.93697353 44.21616772 -198.91565956 51.69010941 -198.88867188 59.1640625 C-198.84607299 71.02606112 -198.80859119 82.88791727 -198.80444336 94.75 C-198.80139869 103.38967331 -198.78084063 112.02909953 -198.73947543 120.66867745 C-198.71818936 125.24100934 -198.70552217 129.81299034 -198.71384621 134.38537216 C-198.72141426 138.69475616 -198.70545253 143.00343082 -198.67193985 147.31268501 C-198.66373961 148.88876951 -198.66391747 150.46492499 -198.67340279 152.04100227 C-198.72107081 160.83685532 -198.48752857 168.69670691 -193 176 C-183.44941194 184.79580518 -169.49515382 187.09083059 -156.93214417 187.15821838 C-155.9210408 187.16561287 -155.9210408 187.16561287 -154.88951111 187.17315674 C-152.6432214 187.18842728 -150.39695968 187.19686487 -148.15063477 187.20532227 C-146.50776138 187.21504629 -144.86489046 187.22519223 -143.22202206 187.23572445 C-138.83423575 187.2626948 -134.44643951 187.28391301 -130.05861664 187.30391693 C-125.93680242 187.32358621 -121.81502605 187.34847348 -117.6932373 187.3729248 C-105.64968676 187.44134361 -93.60608997 187.50141487 -81.5625 187.5625 C-54.646875 187.706875 -27.73125 187.85125 0 188 C0 125.96 0 63.92 0 0 Z " fill="#00668C" transform="translate(941,1362)"/>
<path d="M0 0 C2.30848682 0.00084866 4.61697446 0.00036648 6.92546082 -0.00132751 C13.12243977 -0.00217957 19.31924043 0.01531659 25.51617837 0.03639436 C32.01835972 0.05529454 38.52054627 0.05692202 45.02275085 0.06047058 C55.91363662 0.06870117 66.80445741 0.08737146 77.6953125 0.11425781 C88.90136397 0.14189313 100.10739779 0.16308001 111.31347656 0.17578125 C112.00691633 0.17656942 112.70035611 0.17735759 113.4148092 0.17816965 C116.89439845 0.18208542 120.37398781 0.18587638 123.85357726 0.18960536 C152.61426794 0.22058812 181.37486167 0.27582913 210.13549805 0.34057617 C210.13549805 16.51057617 210.13549805 32.68057617 210.13549805 49.34057617 C203.57989014 49.35515869 197.02428223 49.36974121 190.27001953 49.38476562 C168.5968049 49.43512955 146.92366156 49.50157875 125.25051785 49.57629108 C112.11168153 49.62119185 98.97287198 49.6606197 85.83398438 49.68701172 C74.37761959 49.71003811 62.92133989 49.74348793 51.46504265 49.78927773 C45.40313441 49.81314733 39.34131011 49.83191712 33.279356 49.83819008 C27.56414903 49.84426929 21.84915667 49.86437111 16.13402939 49.89485168 C14.04563326 49.90358662 11.95720903 49.90736401 9.86879539 49.90558434 C-13.13440813 49.57966668 -13.13440813 49.57966668 -33.86450195 58.34057617 C-37.82381284 63.03479395 -39.96710184 67.76224475 -40.04150391 73.92871094 C-40.05433914 74.85720352 -40.06717438 75.78569611 -40.08039856 76.74232483 C-40.08778549 77.74541183 -40.09517242 78.74849884 -40.1027832 79.78198242 C-40.11489082 81.33815529 -40.11489082 81.33815529 -40.12724304 82.92576599 C-40.14108187 85.12562389 -40.15180492 87.32550325 -40.15966797 89.52539062 C-40.17681118 92.86590255 -40.22069177 96.20540668 -40.26489258 99.5456543 C-40.27502605 101.68692309 -40.2835401 103.82820027 -40.2902832 105.96948242 C-40.31654533 107.45285851 -40.31654533 107.45285851 -40.34333801 108.96620178 C-40.31609023 117.81938469 -37.99548834 126.14384071 -31.81762695 132.74291992 C-21.81624225 140.92405261 -9.86608351 142.64104817 2.62036133 142.62768555 C3.61714905 142.63451859 4.61393677 142.64135162 5.64093018 142.64839172 C7.79059756 142.6619017 9.94029636 142.67100481 12.09000015 142.67610168 C15.51680524 142.68447521 18.9433544 142.70506431 22.37008667 142.7286377 C29.66685167 142.77667577 36.96364321 142.80963893 44.26049805 142.84057617 C52.67925776 142.87653584 61.09789422 142.91903993 69.51653671 142.97651672 C72.84821144 142.99619078 76.17978525 143.00482745 79.51150513 143.01281738 C118.03781201 143.20238662 162.93568897 146.78854443 192.13549805 175.34057617 C192.95276367 176.13077148 193.7700293 176.9209668 194.61206055 177.73510742 C202.38337488 185.77221589 207.22382371 194.90737854 207.3125 206.17602539 C207.3190712 206.86759232 207.3256424 207.55915924 207.33241272 208.27168274 C207.35213365 210.5628776 207.3638123 212.85400658 207.3737793 215.14526367 C207.37785482 215.93166355 207.38193035 216.71806343 207.38612938 217.52829361 C207.4069958 221.6994424 207.42128892 225.87055835 207.43066406 230.04174805 C207.44166445 234.31948719 207.47598765 238.59669692 207.51583576 242.87425041 C207.54219229 246.1877427 207.55037313 249.50111323 207.55394554 252.81470108 C207.55877113 254.38932959 207.57026782 255.96395418 207.58898354 257.53847885 C207.78869065 275.46986678 203.32226022 289.29647782 190.69799805 302.40307617 C171.26035605 321.59088494 142.66559664 330.84819402 116.13549805 334.34057617 C115.456085 334.43007758 114.77667196 334.51957899 114.07667065 334.61179256 C103.95150429 335.719155 93.76995853 335.47258946 83.59960938 335.45410156 C81.42067466 335.45381917 79.24173984 335.45397845 77.06280518 335.45454407 C71.17314013 335.45483 65.2834956 335.44896626 59.39383531 335.44197011 C53.229248 335.43570259 47.06466019 335.43513009 40.90007019 335.4339447 C29.23795397 335.43084139 17.57584717 335.42264151 5.91373509 335.41259521 C-7.36800764 335.40140299 -20.64974962 335.39591579 -33.93149602 335.39089978 C-61.24250442 335.38045804 -88.55349991 335.36212501 -115.86450195 335.34057617 C-115.86450195 319.17057617 -115.86450195 303.00057617 -115.86450195 286.34057617 C-109.80405518 286.32075684 -103.7436084 286.3009375 -97.49951172 286.28051758 C-77.44682717 286.21352744 -57.39419358 286.13598674 -37.34156895 286.05304909 C-25.18703519 286.00303422 -13.0325078 285.95659045 -0.87792969 285.91870117 C9.72218402 285.88564838 20.32224661 285.8457448 30.92230374 285.79778612 C36.52930491 285.77265261 42.13627275 285.75083328 47.74331474 285.73723221 C53.03332766 285.72429154 58.3232255 285.70211099 63.61317444 285.67319298 C65.54270232 285.66421011 67.47224868 285.65844905 69.40179634 285.65636253 C99.19552737 286.07747396 99.19552737 286.07747396 125.13549805 273.34057617 C129.09664814 268.38496013 132.23440999 263.96947134 132.32836914 257.55883789 C132.34443207 256.56375214 132.360495 255.56866638 132.37704468 254.54342651 C132.42155069 249.97549098 132.46258729 245.40770154 132.4855957 240.83959961 C132.50212413 238.43422754 132.52937252 236.02890395 132.56762695 233.6237793 C132.62256784 230.1515154 132.64430024 226.68040453 132.65893555 223.20776367 C132.69293961 221.60576614 132.69293961 221.60576614 132.72763062 219.97140503 C132.70550315 212.09879767 130.87054573 207.31409745 125.48934937 201.58932495 C113.61511982 190.04329594 91.75839945 189.18952875 76.15307617 189.19873047 C75.18584122 189.19525604 74.21860626 189.19178162 73.22206116 189.1882019 C71.13072781 189.18087995 69.03938688 189.17551572 66.94804382 189.17191124 C63.61386029 189.16468022 60.27981844 189.14895971 56.94567871 189.13056946 C47.46812021 189.07844807 37.99063781 189.03028686 28.51293945 189.01464844 C22.70039015 189.00443347 16.88819733 188.97476795 11.07579041 188.93332863 C8.88511379 188.9211963 6.69438641 188.91586397 4.50367737 188.91812706 C-32.95292277 188.94726856 -72.91912733 181.03873743 -100.86450195 154.34057617 C-111.75797373 141.74111207 -115.19536678 129.12207006 -115.13012695 112.73510742 C-115.13204041 111.65283371 -115.13395386 110.57056 -115.13592529 109.45549011 C-115.13727882 107.17719285 -115.13364096 104.89888766 -115.12524414 102.62060547 C-115.1145856 99.18007552 -115.12514121 95.74007393 -115.13793945 92.29956055 C-115.15393424 68.42528043 -113.62699455 47.04042271 -96.4543457 28.78198242 C-70.63189919 4.43955547 -33.84170152 -0.17714618 0 0 Z " fill="#CE8B2C" transform="translate(1184.864501953125,1261.659423828125)"/>
<path d="M0 0 C24.09 0 48.18 0 73 0 C73.029729 11.36433472 73.029729 11.36433472 73.06005859 22.95825195 C73.12491756 47.22160127 73.19945356 71.48491165 73.28005161 95.74821349 C73.29256992 99.51939794 73.30500278 103.29058267 73.31738281 107.06176758 C73.31984881 107.81251709 73.3223148 108.56326659 73.32485552 109.33676609 C73.36453868 121.47992603 73.39730565 133.62309523 73.42749982 145.76628206 C73.458655 158.23378972 73.49728169 170.70125824 73.54279006 183.16872185 C73.570619 190.85680182 73.59267617 198.54485328 73.60726251 206.23296996 C73.61908806 212.13623463 73.64132768 218.03943184 73.66738319 223.94265175 C73.67643269 226.35846938 73.68214305 228.77430226 73.68421364 231.19013596 C73.68755473 234.49696595 73.7030822 237.80353035 73.7215271 241.11030579 C73.718625 242.53302236 73.718625 242.53302236 73.71566427 243.98448068 C73.79948269 254.0860083 74.71775361 264.59451731 81.359375 272.6484375 C96.80086947 287.70771676 124.76821313 285.14231382 144.67333984 285.20532227 C146.6162689 285.21492228 148.55919596 285.22493353 150.50212097 285.23532104 C155.73458323 285.26214643 160.96705431 285.28327578 166.19954634 285.30332303 C171.68347207 285.32532205 177.16737133 285.35264208 182.65127563 285.37937927 C193.01704848 285.42911932 203.38283616 285.47412679 213.7486378 285.51740164 C225.5577033 285.56693463 237.36674223 285.62179274 249.17578197 285.67708123 C273.45049765 285.79061406 297.72523799 285.89681186 322 286 C322 302.17 322 318.34 322 335 C296.31097379 335.06803792 270.62202191 335.1231671 244.93292809 335.15543652 C233.00180177 335.17082605 221.07073591 335.19176183 209.13964844 335.22631836 C198.7258581 335.25646559 188.3121116 335.27563228 177.89827883 335.28226548 C172.39755798 335.28613542 166.8969624 335.29505948 161.3962822 335.31719017 C55.23903144 335.72708284 55.23903144 335.72708284 18.48828125 301.60546875 C5.23804145 287.73119881 -0.35152059 270.75780778 -0.24050903 251.81295776 C-0.24221788 250.73043924 -0.24392673 249.64792073 -0.24568737 248.53259861 C-0.24896439 244.92905298 -0.23800801 241.32569627 -0.22705078 237.72216797 C-0.22648628 235.12959294 -0.22680398 232.53701759 -0.22793579 229.94444275 C-0.22898111 224.37499942 -0.22274162 218.8056032 -0.21146011 213.23617172 C-0.19515992 205.18385842 -0.1899925 197.13156775 -0.18748413 189.07923974 C-0.1831141 176.01277454 -0.16982382 162.94633441 -0.15087891 149.87988281 C-0.13250217 137.19205856 -0.11835445 124.50424113 -0.10986328 111.81640625 C-0.10933783 111.03345365 -0.10881239 110.25050105 -0.10827102 109.44382261 C-0.10566082 105.51571825 -0.10313343 101.58761385 -0.10064721 97.65950942 C-0.07993626 65.1063174 -0.04307816 32.55317202 0 0 Z " fill="#CE8B2C" transform="translate(1844,1262)"/>
<path d="M0 0 C5.28 0 10.56 0 16 0 C19.96 9.57 23.92 19.14 28 29 C29.90025583 26.14961626 30.95048032 23.72366924 32.12890625 20.52734375 C32.72155273 18.93116211 32.72155273 18.93116211 33.32617188 17.30273438 C33.73416016 16.19220703 34.14214844 15.08167969 34.5625 13.9375 C35.37540501 11.7379495 36.18916401 9.53871437 37.00390625 7.33984375 C37.36299072 6.36394287 37.7220752 5.38804199 38.09204102 4.38256836 C39 2 39 2 40 0 C45.28 0 50.56 0 56 0 C56 16.17 56 32.34 56 49 C52.37 49 48.74 49 45 49 C44.67 39.1 44.34 29.2 44 19 C38.555 33.85 38.555 33.85 33 49 C30.03 49 27.06 49 24 49 C19.5863331 38.80992112 15.80045999 28.43263528 12 18 C11.67 28.23 11.34 38.46 11 49 C7.37 49 3.74 49 0 49 C0 32.83 0 16.66 0 0 Z " fill="#CD8B2C" transform="translate(2234,1548)"/>
<path d="M0 0 C5.68662975 -0.7381183 9.26585863 1.49193983 13.69921875 4.84765625 C18.97097971 9.0415982 22.22414216 13.21340674 24.94921875 19.41015625 C25.54734375 20.21453125 26.14546875 21.01890625 26.76171875 21.84765625 C29.70126958 28.19089752 28.13800031 35.60620573 25.99609375 42.01171875 C23.89323708 46.82945754 21.31272803 51.4128501 16.34326172 53.50976562 C15.55322754 53.80689453 14.76319336 54.10402344 13.94921875 54.41015625 C13.57748535 53.61955811 13.20575195 52.82895996 12.82275391 52.0144043 C11.40282958 49.01899845 9.965719 46.03308175 8.51708984 43.05151367 C7.89959071 41.77190581 7.28864624 40.48910922 6.68505859 39.20288086 C2.79874273 30.93556832 -1.26976194 24.40076918 -7.72851562 17.84326172 C-17.05078125 8.07605196 -17.05078125 8.07605196 -17.05078125 3.41015625 C-12.75701879 2.06835548 -8.63925587 1.00653925 -4.1328125 0.6015625 C-2.04538063 0.4465866 -2.04538063 0.4465866 0 0 Z " fill="#00668C" transform="translate(1657.05078125,697.58984375)"/>
<path d="M0 0 C13.2 0 26.4 0 40 0 C40 2.97 40 5.94 40 9 C35.38 9 30.76 9 26 9 C26 22.2 26 35.4 26 49 C22.37 49 18.74 49 15 49 C15 35.8 15 22.6 15 9 C10.05 9 5.1 9 0 9 C0 6.03 0 3.06 0 0 Z " fill="#CD8A2C" transform="translate(2184,1548)"/>
</svg>
