<?xml version="1.0" encoding="UTF-8"?>
<svg version="1.1" xmlns="http://www.w3.org/2000/svg" width="630" height="420">
<path d="M0 0 C8.88614261 6.65741752 15.89401488 17.27705837 18.10546875 28.234375 C18.25822266 29.50861328 18.25822266 29.50861328 18.4140625 30.80859375 C20.7240625 31.46859375 23.0340625 32.12859375 25.4140625 32.80859375 C26.78957478 66.58506205 15.10460395 97.25516411 -5.5859375 123.80859375 C-6.58947266 125.14470703 -6.58947266 125.14470703 -7.61328125 126.5078125 C-16.50750555 137.92861107 -28.66662947 152.92848888 -41.5859375 159.80859375 C-45.87981524 159.81759559 -48.90746911 156.30672039 -51.9609375 153.62109375 C-52.57235596 153.08790527 -53.18377441 152.5547168 -53.8137207 152.00537109 C-77.8814065 130.76030557 -95.59712498 106.12255931 -106.5859375 75.80859375 C-110.85575458 87.66496082 -113.44481472 101.30438015 -108.8984375 113.49609375 C-108.17297855 114.95701798 -107.40511748 116.39808518 -106.5859375 117.80859375 C-106.09480469 118.7521875 -106.09480469 118.7521875 -105.59375 119.71484375 C-99.96438872 129.0834158 -88.61451552 133.10441079 -78.5859375 135.80859375 C-75.59254883 136.55058103 -72.61127557 137.20352614 -69.5859375 137.80859375 C-69.5859375 138.46859375 -69.5859375 139.12859375 -69.5859375 139.80859375 C-83.19536564 140.27609319 -95.8940464 134.83800103 -105.80078125 125.6796875 C-114.03764957 117.04629597 -116.19343359 106.23617007 -115.94921875 94.578125 C-115.19364617 86.73804395 -113.12593636 79.0370652 -110.43359375 71.64453125 C-109.56207934 68.72877337 -109.49201649 66.92054334 -109.8984375 63.93359375 C-109.99769531 63.15242188 -110.09695312 62.37125 -110.19921875 61.56640625 C-110.49551708 59.4534101 -110.79923244 57.34145285 -111.10620117 55.22998047 C-111.68494339 50.5800781 -111.69797644 45.9881186 -111.6484375 41.30859375 C-111.64392578 40.48617187 -111.63941406 39.66375 -111.63476562 38.81640625 C-111.62312239 36.81376979 -111.60519306 34.81117148 -111.5859375 32.80859375 C-110.52793945 32.46715332 -109.46994141 32.12571289 -108.37988281 31.77392578 C-104.38953101 30.47802025 -100.4119802 29.14598617 -96.43701172 27.80371094 C-94.7276436 27.23188928 -93.0151152 26.66941379 -91.29931641 26.1171875 C-79.63102633 22.35278299 -71.55766598 18.19216142 -62.5859375 9.80859375 C-44.86678265 -3.47524483 -20.21115986 -13.04652269 0 0 Z M-53.5859375 11.80859375 C-52.5959375 12.30359375 -52.5959375 12.30359375 -51.5859375 12.80859375 C-50.7196875 12.47859375 -49.8534375 12.14859375 -48.9609375 11.80859375 C-41.55569625 9.6144482 -34.48001251 12.65578328 -27.50390625 15.1875 C-26.56791092 15.51902573 -25.63191559 15.85055145 -24.66755676 16.19212341 C-21.70006525 17.24414097 -18.73653492 18.30676901 -15.7734375 19.37109375 C-12.79208437 20.43776793 -9.80994351 21.50204503 -6.82575989 22.56077576 C-4.97430634 23.21801959 -3.12453442 23.88002402 -1.2766571 24.54725647 C-0.4418129 24.84434006 0.39303131 25.14142365 1.25317383 25.44750977 C1.98627274 25.71096695 2.71937164 25.97442413 3.47468567 26.24586487 C5.55769526 26.94792668 5.55769526 26.94792668 8.4140625 26.80859375 C5.90492846 17.27388439 0.85108447 9.86080256 -7.5859375 4.80859375 C-8.5965625 4.18984375 -9.6071875 3.57109375 -10.6484375 2.93359375 C-25.17296845 -2.5916834 -41.23700456 4.38438557 -53.5859375 11.80859375 Z M-49.02368164 21.64453125 C-50.18480972 22.04494629 -51.34593781 22.44536133 -52.54225159 22.85791016 C-53.81854361 23.29977203 -55.09482406 23.74166736 -56.37109375 24.18359375 C-57.66999258 24.63213273 -58.96893827 25.08053604 -60.26792908 25.52880859 C-63.69282279 26.71112534 -67.11707433 27.8952914 -70.54119873 29.07983398 C-74.03294179 30.28740566 -77.52528441 31.4932407 -81.01757812 32.69921875 C-87.8742884 35.06730393 -94.7303217 37.43734164 -101.5859375 39.80859375 C-101.60399404 41.70927448 -101.61680449 43.61000546 -101.62744141 45.51074219 C-101.63514557 46.56920349 -101.64284973 47.62766479 -101.65078735 48.71820068 C-101.56169562 52.9638307 -100.89422415 56.92706578 -99.9609375 61.05859375 C-99.78199951 61.86796387 -99.60306152 62.67733398 -99.41870117 63.51123047 C-93.12006405 90.6344211 -77.91451735 114.11067798 -58.5859375 133.80859375 C-57.75835937 134.67484375 -56.93078125 135.54109375 -56.078125 136.43359375 C-51.84069787 140.80029832 -47.57768879 144.34025992 -42.5859375 147.80859375 C-38.16955329 143.71653776 -33.76782186 139.60936444 -29.37988281 135.48681641 C-28.01796317 134.21275059 -26.64442631 132.95108945 -25.265625 131.6953125 C-13.68405541 120.79058788 -4.65239426 106.96957661 2.4140625 92.80859375 C2.73600586 92.16599609 3.05794922 91.52339844 3.38964844 90.86132812 C8.59349096 80.26189453 11.85470179 69.31716674 14.4140625 57.80859375 C14.62289062 56.88304687 14.83171875 55.9575 15.046875 55.00390625 C15.41144196 51.83139803 15.44963991 48.80059609 15.43701172 45.60888672 C15.43369843 44.52396942 15.43038513 43.43905212 15.42697144 42.32125854 C15.42271149 41.49207916 15.41845154 40.66289978 15.4140625 39.80859375 C7.86969496 37.199113 0.32476171 34.59127736 -7.22090816 31.98556519 C-10.72429622 30.77569754 -14.22748343 29.56525492 -17.73022461 28.35351562 C-21.10785543 27.18508039 -24.48599676 26.01813284 -27.86450386 24.85223389 C-29.15613834 24.40620345 -30.44758503 23.95962882 -31.73884392 23.51251221 C-33.54146875 22.88842996 -35.34481303 22.26642699 -37.14819336 21.64453125 C-38.17633652 21.2892334 -39.20447968 20.93393555 -40.26377869 20.56787109 C-43.82243151 19.40429673 -45.44284231 20.40709217 -49.02368164 21.64453125 Z " fill="#3A3A3C" transform="translate(164.5859375,133.19140625)"/>
<path d="M0 0 C37.29 0 74.58 0 113 0 C112 12 112 12 110 22 C95.81 22 81.62 22 67 22 C67.15662109 29.3321875 67.15662109 29.3321875 67.31640625 36.8125 C67.36242681 39.92068128 67.40575125 43.02843899 67.43945312 46.13671875 C67.49313433 51.06420775 67.55643175 55.99018316 67.67895508 60.91650391 C67.7771876 64.89131143 67.83064619 68.86449541 67.85389519 72.84042358 C67.87044824 74.35242264 67.90277656 75.86433868 67.95157051 77.37564087 C68.31448852 89.08871463 68.31448852 89.08871463 65.07711792 93.79589844 C62.78071543 95.97347229 60.86512867 97.65356846 58 99 C53.80194382 98.67981916 50.7193002 96.26625146 47.69360352 93.49630737 C44.08543536 88.17800431 45.04187972 81.40777295 45.21875 75.22265625 C45.23368858 73.68569393 45.24506797 72.14869326 45.25305176 70.61167908 C45.28346109 66.58455476 45.36191877 62.55977367 45.45068359 58.53356934 C45.5472868 53.69312719 45.58370797 48.85189721 45.63031006 44.01076508 C45.70764564 36.67221846 45.86098558 29.33880298 46 22 C32.14 22 18.28 22 4 22 C2.42325526 18.05813814 1.53404108 15.10070007 0.875 11 C0.70742187 9.989375 0.53984375 8.97875 0.3671875 7.9375 C0 5 0 5 0 0 Z " fill="#3A3A3C" transform="translate(65,178)"/>
<path d="M0 0 C8.2603125 -0.1546875 8.2603125 -0.1546875 16.6875 -0.3125 C19.28177856 -0.38078003 19.28177856 -0.38078003 21.9284668 -0.45043945 C23.31036442 -0.46505226 24.69228368 -0.47779106 26.07421875 -0.48828125 C26.78276001 -0.51386108 27.49130127 -0.53944092 28.22131348 -0.5657959 C31.85850169 -0.5689825 33.88349351 -0.07531178 36.95385742 1.90942383 C39.84110245 6.27043502 39.72042119 9.80925134 39.6640625 14.9375 C39.66884613 15.89519287 39.67362976 16.85288574 39.67855835 17.83959961 C39.68195401 19.86020555 39.67277495 21.88086668 39.65185547 23.90136719 C39.6250851 26.99018111 39.65161452 30.0753613 39.68359375 33.1640625 C39.68028959 35.13021634 39.67388324 37.09636791 39.6640625 39.0625 C39.67418365 39.98345459 39.68430481 40.90440918 39.69473267 41.85327148 C39.61600818 46.17089463 39.38362366 48.42055936 36.95385742 52.09057617 C33.2564838 54.48062155 30.33502429 54.64210532 26.07421875 54.48828125 C25.41087524 54.48324585 24.74753174 54.47821045 24.06408691 54.47302246 C21.60477998 54.44701664 19.14609302 54.37720886 16.6875 54.3125 C8.4271875 54.1578125 8.4271875 54.1578125 0 54 C0 36.18 0 18.36 0 0 Z M12 11 C12 21.56 12 32.12 12 43 C16.95 43 21.9 43 27 43 C27 32.44 27 21.88 27 11 C22.05 11 17.1 11 12 11 Z " fill="#3A3A3C" transform="translate(546,192)"/>
<path d="M0 0 C1.23234375 -0.03287109 2.4646875 -0.06574219 3.734375 -0.09960938 C13.84865066 -0.15994399 13.84865066 -0.15994399 16.9140625 2.71484375 C20.19857137 7.9415622 19.71395697 12.38842637 19.625 18.4375 C15.665 18.4375 11.705 18.4375 7.625 18.4375 C7.295 16.4575 6.965 14.4775 6.625 12.4375 C2.335 12.1075 -1.955 11.7775 -6.375 11.4375 C-6.045 14.0775 -5.715 16.7175 -5.375 19.4375 C-4.14523437 19.67984375 -2.91546875 19.9221875 -1.6484375 20.171875 C-0.01548232 20.5097278 1.61732246 20.84830808 3.25 21.1875 C4.46236328 21.42339844 4.46236328 21.42339844 5.69921875 21.6640625 C10.86222513 22.7554297 14.48848056 24.12306487 18.625 27.4375 C20.43715899 31.06181797 19.93811698 35.25854538 20 39.25 C20.03738281 40.15298828 20.07476562 41.05597656 20.11328125 41.98632812 C20.1684388 46.15685194 19.95809614 48.81156342 17.9765625 52.53515625 C12.46068613 55.66596253 6.84802881 55.15717082 0.625 55.0625 C-1.28152344 55.09150391 -1.28152344 55.09150391 -3.2265625 55.12109375 C-13.570177 55.06665367 -13.570177 55.06665367 -16.6875 52.0859375 C-20.0085019 46.87380952 -19.45309994 42.45119556 -19.375 36.4375 C-15.415 36.4375 -11.455 36.4375 -7.375 36.4375 C-7.375 38.7475 -7.375 41.0575 -7.375 43.4375 C-2.425 43.4375 2.525 43.4375 7.625 43.4375 C7.625 40.4675 7.625 37.4975 7.625 34.4375 C6.3875 34.334375 5.15 34.23125 3.875 34.125 C-12.0433894 32.28632528 -12.0433894 32.28632528 -16.5625 27.9375 C-20.55333041 22.43290634 -19.82288732 15.96722565 -19.375 9.4375 C-16.81446457 -1.14016014 -9.22179535 0.0431373 0 0 Z " fill="#3A3A3C" transform="translate(359.375,191.5625)"/>
<path d="M0 0 C3.96 0 7.92 0 12 0 C12 6.93 12 13.86 12 21 C17.61 21 23.22 21 29 21 C29 14.07 29 7.14 29 0 C32.96 0 36.92 0 41 0 C41 17.82 41 35.64 41 54 C37.04 54 33.08 54 29 54 C29 46.74 29 39.48 29 32 C23.39 32 17.78 32 12 32 C12 39.26 12 46.52 12 54 C8.04 54 4.08 54 0 54 C0 36.18 0 18.36 0 0 Z " fill="#3A3A3C" transform="translate(388,192)"/>
<path d="M0 0 C11.88 0 23.76 0 36 0 C36 3.63 36 7.26 36 11 C28.08 11 20.16 11 12 11 C12 14.3 12 17.6 12 21 C18.6 21 25.2 21 32 21 C32 24.63 32 28.26 32 32 C25.4 32 18.8 32 12 32 C12 35.63 12 39.26 12 43 C19.92 43 27.84 43 36 43 C36 46.63 36 50.26 36 54 C24.12 54 12.24 54 0 54 C0 36.18 0 18.36 0 0 Z " fill="#3A3A3C" transform="translate(461,192)"/>
<path d="M0 0 C3.96 0 7.92 0 12 0 C12 14.19 12 28.38 12 43 C19.26 43 26.52 43 34 43 C34 46.63 34 50.26 34 54 C22.78 54 11.56 54 0 54 C0 36.18 0 18.36 0 0 Z " fill="#3A3A3C" transform="translate(505,192)"/>
<path d="M0 0 C5.011875 -0.103125 10.02375 -0.20625 15.1875 -0.3125 C16.76039795 -0.35802002 18.3332959 -0.40354004 19.95385742 -0.45043945 C21.20013916 -0.46292725 22.4464209 -0.47541504 23.73046875 -0.48828125 C25.00301514 -0.51446533 26.27556152 -0.54064941 27.58666992 -0.56762695 C31.90125159 0.14987554 33.31813677 1.61995164 36 5 C37.33370041 9.00110123 37.22335475 12.68503403 37.25 16.875 C37.270625 17.67808594 37.29125 18.48117188 37.3125 19.30859375 C37.34350685 24.01388392 37.17269482 27.26173784 34 31 C29.35409278 35.22438507 23.58736067 34.33471341 17.6875 34.1875 C16.66076172 34.17396484 15.63402344 34.16042969 14.57617188 34.14648438 C12.05055511 34.11124321 9.52520944 34.05743947 7 34 C7 40.6 7 47.2 7 54 C4.69 54 2.38 54 0 54 C0 36.18 0 18.36 0 0 Z M7 6 C7 12.93 7 19.86 7 27 C12.135625 27.0928125 12.135625 27.0928125 17.375 27.1875 C18.45313965 27.21481201 19.5312793 27.24212402 20.64208984 27.27026367 C21.48980957 27.27775635 22.3375293 27.28524902 23.2109375 27.29296875 C24.08024902 27.3086792 24.94956055 27.32438965 25.84521484 27.34057617 C26.55629395 27.22818604 27.26737305 27.1157959 28 27 C30.43044139 23.35433792 30.26310692 20.64363257 30.1875 16.4375 C30.1865332 15.40979492 30.1865332 15.40979492 30.18554688 14.36132812 C30.20042427 10.55369027 30.20042427 10.55369027 29 7 C26.17588235 6.05862745 24.47081968 5.88274618 21.55078125 5.90234375 C20.78677002 5.90484131 20.02275879 5.90733887 19.2355957 5.90991211 C18.27097412 5.91901611 17.30635254 5.92812012 16.3125 5.9375 C13.239375 5.958125 10.16625 5.97875 7 6 Z " fill="#3A3A3C" transform="translate(297,192)"/>
<path d="M0 0 C1.18916016 -0.03738281 2.37832031 -0.07476562 3.60351562 -0.11328125 C12.30154266 -0.20118944 12.30154266 -0.20118944 16.4609375 2.50390625 C18.43221966 5.78194333 18.87455235 7.88225456 19 11.6875 C19.04769531 12.75613281 19.09539062 13.82476562 19.14453125 14.92578125 C19.15871094 15.73402344 19.17289062 16.54226562 19.1875 17.375 C16.5475 17.375 13.9075 17.375 11.1875 17.375 C11.11402344 16.41787109 11.11402344 16.41787109 11.0390625 15.44140625 C10.96429688 14.61511719 10.88953125 13.78882813 10.8125 12.9375 C10.74289062 12.11378906 10.67328125 11.29007813 10.6015625 10.44140625 C10.46492188 9.75949219 10.32828125 9.07757813 10.1875 8.375 C6.90605481 6.73427741 3.28960004 7.23225566 -0.3125 7.25 C-1.09753906 7.24613281 -1.88257813 7.24226562 -2.69140625 7.23828125 C-6.88520323 7.13692381 -6.88520323 7.13692381 -10.8125 8.375 C-10.8125 20.915 -10.8125 33.455 -10.8125 46.375 C-8.53358967 47.51445516 -7.24467896 47.50394214 -4.71484375 47.5078125 C-3.91369141 47.50910156 -3.11253906 47.51039063 -2.28710938 47.51171875 C-1.44986328 47.50785156 -0.61261719 47.50398438 0.25 47.5 C1.51166992 47.50580078 1.51166992 47.50580078 2.79882812 47.51171875 C6.8117087 47.91103884 6.8117087 47.91103884 10.1875 46.375 C10.41942865 44.86030552 10.59965238 43.33745438 10.75 41.8125 C10.83378906 40.98621094 10.91757812 40.15992188 11.00390625 39.30859375 C11.09478516 38.35146484 11.09478516 38.35146484 11.1875 37.375 C13.8275 37.375 16.4675 37.375 19.1875 37.375 C19.39465279 42.45024347 19.01938142 46.6121083 17.1875 51.375 C12.41638474 56.07879067 6.02553579 54.9276483 -0.25 54.9375 C-1.47783203 54.97423828 -2.70566406 55.01097656 -3.97070312 55.04882812 C-5.15470703 55.05462891 -6.33871094 55.06042969 -7.55859375 55.06640625 C-9.17785767 55.08489624 -9.17785767 55.08489624 -10.82983398 55.10375977 C-14.18766774 54.28333464 -15.82673457 53.07232152 -17.87705994 50.27919006 C-19.69087314 46.58697587 -19.50283214 42.81757171 -19.44140625 38.77734375 C-19.44381821 37.86545792 -19.44623016 36.95357208 -19.44871521 36.01405334 C-19.44773906 34.093553 -19.43440095 32.17302371 -19.40942383 30.25268555 C-19.37506292 27.31787394 -19.38878952 24.38606726 -19.40820312 21.45117188 C-19.40130551 19.58071639 -19.39163389 17.71026865 -19.37890625 15.83984375 C-19.38386612 14.96577377 -19.38882599 14.0917038 -19.39393616 13.19114685 C-19.31442115 9.06822413 -19.14854719 6.90782268 -16.90209961 3.34594727 C-12.18268307 -1.10548979 -6.165737 0.07281064 0 0 Z " fill="#3A3A3C" transform="translate(267.8125,191.625)"/>
<path d="M0 0 C3.96 0 7.92 0 12 0 C12 17.82 12 35.64 12 54 C8.04 54 4.08 54 0 54 C0 36.18 0 18.36 0 0 Z " fill="#3A3A3C" transform="translate(439,192)"/>
<path d="M0 0 C12.54 0 25.08 0 38 0 C38 1.98 38 3.96 38 6 C33.05 6 28.1 6 23 6 C23 21.84 23 37.68 23 54 C20.36 54 17.72 54 15 54 C15 38.16 15 22.32 15 6 C10.05 6 5.1 6 0 6 C0 4.02 0 2.04 0 0 Z " fill="#3A3A3C" transform="translate(205,192)"/>
</svg>
