<svg version="1.1" id="Layer_1" xmlns="http://www.w3.org/2000/svg" xmlns:xlink="http://www.w3.org/1999/xlink" x="0px" y="0px"
	 width="100%" viewBox="0 0 350 350" enable-background="new 0 0 350 350" xml:space="preserve">
<path fill="#47704C" opacity="1.000000" stroke="none" 
	d="
M236.000000,351.000000 
	C157.333344,351.000000 79.166695,351.000000 1.000031,351.000000 
	C1.000021,234.333374 1.000021,117.666733 1.000010,1.000078 
	C117.666618,1.000052 234.333237,1.000052 350.999878,1.000026 
	C350.999939,117.666588 350.999939,234.333176 350.999969,350.999878 
	C312.833344,351.000000 274.666656,351.000000 236.000000,351.000000 
M206.531723,305.038177 
	C227.082596,300.087494 245.323959,290.818909 261.569733,277.138550 
	C275.746216,265.200714 286.983551,251.074463 294.997162,234.584030 
	C307.118439,209.640701 311.531494,183.360107 307.082916,155.689941 
	C302.763489,128.823196 291.376923,105.485809 273.004730,85.594162 
	C260.412781,71.960808 245.478531,61.456772 228.365265,54.121193 
	C206.174515,44.609142 183.019455,41.095421 159.154282,44.254059 
	C142.591049,46.446259 126.870728,51.714405 112.086975,59.884098 
	C87.108757,73.687393 68.417419,93.443756 56.236118,119.005135 
	C44.619076,143.382492 40.557159,169.125824 44.888500,196.094772 
	C47.783295,214.119125 53.980038,230.759720 63.582531,246.198822 
	C71.604118,259.096161 81.291061,270.670135 93.470932,279.704132 
	C101.756363,285.849548 110.727806,291.260712 119.935837,295.928223 
	C134.787827,303.456726 150.732376,307.034363 167.461578,308.313416 
	C180.530945,309.312653 193.084122,307.777863 206.531723,305.038177 
z"/>
<path fill="#5765EB" opacity="1.000000" stroke="none" 
	d="
M206.115189,305.101501 
	C193.084122,307.777863 180.530945,309.312653 167.461578,308.313416 
	C150.732376,307.034363 134.787827,303.456726 119.935837,295.928223 
	C110.727806,291.260712 101.756363,285.849548 93.470932,279.704132 
	C81.291061,270.670135 71.604118,259.096161 63.582531,246.198822 
	C53.980038,230.759720 47.783295,214.119125 44.888500,196.094772 
	C40.557159,169.125824 44.619076,143.382492 56.236118,119.005135 
	C68.417419,93.443756 87.108757,73.687393 112.086975,59.884098 
	C126.870728,51.714405 142.591049,46.446259 159.154282,44.254059 
	C183.019455,41.095421 206.174515,44.609142 228.365265,54.121193 
	C245.478531,61.456772 260.412781,71.960808 273.004730,85.594162 
	C291.376923,105.485809 302.763489,128.823196 307.082916,155.689941 
	C311.531494,183.360107 307.118439,209.640701 294.997162,234.584030 
	C286.983551,251.074463 275.746216,265.200714 261.569733,277.138550 
	C245.323959,290.818909 227.082596,300.087494 206.115189,305.101501 
M245.209167,146.328705 
	C242.136749,140.613998 238.993210,134.936050 236.014908,129.172699 
	C233.727203,124.745735 230.246857,122.110153 225.429825,120.861481 
	C218.183090,118.982964 210.939667,117.042267 203.821426,114.737106 
	C199.969131,113.489578 197.771622,114.415230 196.653824,118.184502 
	C195.619766,121.671501 193.415115,122.270424 189.866272,122.098976 
	C180.914383,121.666496 171.913895,121.574234 162.966324,122.018784 
	C158.933014,122.219185 156.252579,121.783981 155.042175,117.594521 
	C154.153152,114.517456 152.323532,113.514336 148.996994,114.542351 
	C141.368332,116.899864 133.635941,118.923470 125.936249,121.048523 
	C121.916443,122.157951 118.989639,124.398201 116.693779,128.033661 
	C100.157204,154.218964 92.494034,182.641953 94.910568,213.591400 
	C95.075325,215.701538 96.582619,218.502777 98.327164,219.557587 
	C106.425407,224.454086 114.488037,229.677719 123.195045,233.240677 
	C138.990356,239.704147 134.737701,241.627731 144.465866,225.333481 
	C144.611664,225.089294 144.517502,224.701828 144.552994,224.062912 
	C140.494156,221.955734 136.312866,219.784973 132.131577,217.614227 
	C132.217682,217.079025 132.303787,216.543839 132.389893,216.008636 
	C134.191879,216.008636 136.086929,215.641342 137.780212,216.070374 
	C146.468216,218.271698 154.984619,221.399078 163.783951,222.859207 
	C180.957840,225.708969 197.593399,222.640839 213.670807,216.232315 
	C215.826645,215.372986 218.237793,213.745560 219.774323,217.674728 
	C215.468842,219.917999 211.291687,222.094391 206.817017,224.425812 
	C209.225235,228.331833 211.458298,231.640503 213.356491,235.131287 
	C214.884903,237.942001 216.801926,238.396545 219.486404,237.031815 
	C231.022293,231.167160 242.647644,225.468369 254.017914,219.299103 
	C255.693420,218.390015 256.920746,215.337570 257.092285,213.176514 
	C258.919739,190.155045 255.115723,168.061035 245.209167,146.328705 
z"/>
<path fill="#FDFDFF" opacity="1.000000" stroke="none" 
	d="
M245.374878,146.665497 
	C255.115723,168.061035 258.919739,190.155045 257.092285,213.176514 
	C256.920746,215.337570 255.693420,218.390015 254.017914,219.299103 
	C242.647644,225.468369 231.022293,231.167160 219.486404,237.031815 
	C216.801926,238.396545 214.884903,237.942001 213.356491,235.131287 
	C211.458298,231.640503 209.225235,228.331833 206.817017,224.425812 
	C211.291687,222.094391 215.468842,219.917999 219.774323,217.674728 
	C218.237793,213.745560 215.826645,215.372986 213.670807,216.232315 
	C197.593399,222.640839 180.957840,225.708969 163.783951,222.859207 
	C154.984619,221.399078 146.468216,218.271698 137.780212,216.070374 
	C136.086929,215.641342 134.191879,216.008636 132.389893,216.008636 
	C132.303787,216.543839 132.217682,217.079025 132.131577,217.614227 
	C136.312866,219.784973 140.494156,221.955734 144.552994,224.062912 
	C144.517502,224.701828 144.611664,225.089294 144.465866,225.333481 
	C134.737701,241.627731 138.990356,239.704147 123.195045,233.240677 
	C114.488037,229.677719 106.425407,224.454086 98.327164,219.557587 
	C96.582619,218.502777 95.075325,215.701538 94.910568,213.591400 
	C92.494034,182.641953 100.157204,154.218964 116.693779,128.033661 
	C118.989639,124.398201 121.916443,122.157951 125.936249,121.048523 
	C133.635941,118.923470 141.368332,116.899864 148.996994,114.542351 
	C152.323532,113.514336 154.153152,114.517456 155.042175,117.594521 
	C156.252579,121.783981 158.933014,122.219185 162.966324,122.018784 
	C171.913895,121.574234 180.914383,121.666496 189.866272,122.098976 
	C193.415115,122.270424 195.619766,121.671501 196.653824,118.184502 
	C197.771622,114.415230 199.969131,113.489578 203.821426,114.737106 
	C210.939667,117.042267 218.183090,118.982964 225.429825,120.861481 
	C230.246857,122.110153 233.727203,124.745735 236.014908,129.172699 
	C238.993210,134.936050 242.136749,140.613998 245.374878,146.665497 
M162.135864,174.883652 
	C157.987396,167.758881 152.780502,164.837769 146.419708,166.066788 
	C140.008759,167.305466 135.344315,172.809265 134.359924,180.296631 
	C133.409927,187.522491 137.765228,195.212830 144.216705,197.701111 
	C150.128159,199.981110 156.729233,197.924835 160.435135,192.350708 
	C163.871201,187.182404 164.403076,181.521515 162.135864,174.883652 
M192.920090,170.441757 
	C192.113174,171.495880 191.168228,172.471939 190.520935,173.616348 
	C184.654648,183.987579 191.665787,198.388443 202.701370,198.706482 
	C208.689575,198.879074 214.640121,194.310684 216.790985,187.889557 
	C219.213882,180.656250 216.629608,172.212128 210.785858,168.267685 
	C205.220413,164.511139 199.165665,165.085312 192.920090,170.441757 
z"/>
<path fill="#5967EB" opacity="1.000000" stroke="none" 
	d="
M162.300385,175.256912 
	C164.403076,181.521515 163.871201,187.182404 160.435135,192.350708 
	C156.729233,197.924835 150.128159,199.981110 144.216705,197.701111 
	C137.765228,195.212830 133.409927,187.522491 134.359924,180.296631 
	C135.344315,172.809265 140.008759,167.305466 146.419708,166.066788 
	C152.780502,164.837769 157.987396,167.758881 162.300385,175.256912 
z"/>
<path fill="#5967EB" opacity="1.000000" stroke="none" 
	d="
M193.184525,170.176758 
	C199.165665,165.085312 205.220413,164.511139 210.785858,168.267685 
	C216.629608,172.212128 219.213882,180.656250 216.790985,187.889557 
	C214.640121,194.310684 208.689575,198.879074 202.701370,198.706482 
	C191.665787,198.388443 184.654648,183.987579 190.520935,173.616348 
	C191.168228,172.471939 192.113174,171.495880 193.184525,170.176758 
z"/>
</svg>