<?xml version="1.0" encoding="UTF-8"?>
<svg version="1.1" xmlns="http://www.w3.org/2000/svg" width="512" height="512">
<path d="M0 0 C6.93 0 13.86 0 21 0 C21 6.93 21 13.86 21 21 C35.19 21 49.38 21 64 21 C64 27.93 64 34.86 64 42 C78.19 42 92.38 42 107 42 C107 49.26 107 56.52 107 64 C113.93 64 120.86 64 128 64 C128 70.93 128 77.86 128 85 C142.19 85 156.38 85 171 85 C171 91.93 171 98.86 171 106 C177.93 106 184.86 106 192 106 C192 176.62 192 247.24 192 320 C185.07 320 178.14 320 171 320 C171 326.93 171 333.86 171 341 C163.74 341 156.48 341 149 341 C149 347.93 149 354.86 149 362 C135.14 362 121.28 362 107 362 C107 369.26 107 376.52 107 384 C92.81 384 78.62 384 64 384 C64 390.93 64 397.86 64 405 C49.81 405 35.62 405 21 405 C21 411.93 21 418.86 21 426 C7.14 426 -6.72 426 -21 426 C-21 419.07 -21 412.14 -21 405 C-42.12 405 -63.24 405 -85 405 C-85 390.81 -85 376.62 -85 362 C-92.26 362 -99.52 362 -107 362 C-107 355.07 -107 348.14 -107 341 C-120.86 341 -134.72 341 -149 341 C-149 334.07 -149 327.14 -149 320 C-156.26 320 -163.52 320 -171 320 C-171 270.5 -171 221 -171 170 C-177.93 170 -184.86 170 -192 170 C-192 148.88 -192 127.76 -192 106 C-177.81 106 -163.62 106 -149 106 C-149 99.07 -149 92.14 -149 85 C-135.14 85 -121.28 85 -107 85 C-107 78.07 -107 71.14 -107 64 C-92.81 64 -78.62 64 -64 64 C-64 56.74 -64 49.48 -64 42 C-57.07 42 -50.14 42 -43 42 C-43 35.07 -43 28.14 -43 21 C-28.81 21 -14.62 21 0 21 C0 14.07 0 7.14 0 0 Z " fill="#004FB4" transform="translate(256,43)"/>
<path d="M0 0 C6.93 0 13.86 0 21 0 C21 6.93 21 13.86 21 21 C35.19 21 49.38 21 64 21 C64 27.93 64 34.86 64 42 C78.19 42 92.38 42 107 42 C107 49.26 107 56.52 107 64 C113.93 64 120.86 64 128 64 C128 70.93 128 77.86 128 85 C142.19 85 156.38 85 171 85 C171 91.93 171 98.86 171 106 C177.93 106 184.86 106 192 106 C192 113.26 192 120.52 192 128 C177.81 128 163.62 128 149 128 C149 134.93 149 141.86 149 149 C135.14 149 121.28 149 107 149 C107 155.93 107 162.86 107 170 C92.81 170 78.62 170 64 170 C64 177.26 64 184.52 64 192 C57.07 192 50.14 192 43 192 C43 198.93 43 205.86 43 213 C21.88 213 0.76 213 -21 213 C-21 219.93 -21 226.86 -21 234 C-28.26 234 -35.52 234 -43 234 C-43 227.07 -43 220.14 -43 213 C-49.93 213 -56.86 213 -64 213 C-64 198.81 -64 184.62 -64 170 C-70.93 170 -77.86 170 -85 170 C-85 191.12 -85 212.24 -85 234 C-92.26 234 -99.52 234 -107 234 C-107 248.19 -107 262.38 -107 277 C-113.93 277 -120.86 277 -128 277 C-128 255.88 -128 234.76 -128 213 C-134.93 213 -141.86 213 -149 213 C-149 206.07 -149 199.14 -149 192 C-156.26 192 -163.52 192 -171 192 C-171 184.74 -171 177.48 -171 170 C-177.93 170 -184.86 170 -192 170 C-192 148.88 -192 127.76 -192 106 C-177.81 106 -163.62 106 -149 106 C-149 99.07 -149 92.14 -149 85 C-135.14 85 -121.28 85 -107 85 C-107 78.07 -107 71.14 -107 64 C-92.81 64 -78.62 64 -64 64 C-64 56.74 -64 49.48 -64 42 C-57.07 42 -50.14 42 -43 42 C-43 35.07 -43 28.14 -43 21 C-28.81 21 -14.62 21 0 21 C0 14.07 0 7.14 0 0 Z " fill="#00D5F0" transform="translate(256,43)"/>
<path d="M0 0 C7.26 0 14.52 0 22 0 C22 6.93 22 13.86 22 21 C28.93 21 35.86 21 43 21 C43 42.12 43 63.24 43 85 C64.12 85 85.24 85 107 85 C107 91.93 107 98.86 107 106 C113.93 106 120.86 106 128 106 C128 113.26 128 120.52 128 128 C135.26 128 142.52 128 150 128 C150 141.86 150 155.72 150 170 C142.74 170 135.48 170 128 170 C128 184.19 128 198.38 128 213 C114.14 213 100.28 213 86 213 C86 198.81 86 184.62 86 170 C78.74 170 71.48 170 64 170 C64 163.07 64 156.14 64 149 C50.14 149 36.28 149 22 149 C22 142.07 22 135.14 22 128 C14.74 128 7.48 128 0 128 C0 85.76 0 43.52 0 0 Z " fill="#7FB62C" transform="translate(85,235)"/>
<path d="M0 0 C35.31 0 70.62 0 107 0 C107 14.19 107 28.38 107 43 C113.93 43 120.86 43 128 43 C128 49.93 128 56.86 128 64 C121.07 64 114.14 64 107 64 C107 85.12 107 106.24 107 128 C99.74 128 92.48 128 85 128 C85 142.19 85 156.38 85 171 C78.07 171 71.14 171 64 171 C64 149.88 64 128.76 64 107 C57.07 107 50.14 107 43 107 C43 100.07 43 93.14 43 86 C35.74 86 28.48 86 21 86 C21 78.74 21 71.48 21 64 C14.07 64 7.14 64 0 64 C0 42.88 0 21.76 0 0 Z " fill="#A2CB39" transform="translate(64,149)"/>
<path d="M0 0 C6.93 0 13.86 0 21 0 C21 7.26 21 14.52 21 22 C28.26 22 35.52 22 43 22 C43 14.74 43 7.48 43 0 C49.93 0 56.86 0 64 0 C64 21.12 64 42.24 64 64 C57.07 64 50.14 64 43 64 C43 78.19 43 92.38 43 107 C28.81 107 14.62 107 0 107 C0 113.93 0 120.86 0 128 C-6.93 128 -13.86 128 -21 128 C-21 121.07 -21 114.14 -21 107 C-28.26 107 -35.52 107 -43 107 C-43 113.93 -43 120.86 -43 128 C-56.86 128 -70.72 128 -85 128 C-85 114.14 -85 100.28 -85 86 C-78.07 86 -71.14 86 -64 86 C-64 78.74 -64 71.48 -64 64 C-57.07 64 -50.14 64 -43 64 C-43 57.07 -43 50.14 -43 43 C-35.74 43 -28.48 43 -21 43 C-21 36.07 -21 29.14 -21 22 C-14.07 22 -7.14 22 0 22 C0 14.74 0 7.48 0 0 Z " fill="#756853" transform="translate(384,213)"/>
<path d="M0 0 C6.93 0 13.86 0 21 0 C21 6.93 21 13.86 21 21 C35.19 21 49.38 21 64 21 C64 27.93 64 34.86 64 42 C78.19 42 92.38 42 107 42 C107 49.26 107 56.52 107 64 C113.93 64 120.86 64 128 64 C128 70.93 128 77.86 128 85 C142.19 85 156.38 85 171 85 C171 91.93 171 98.86 171 106 C177.93 106 184.86 106 192 106 C192 113.26 192 120.52 192 128 C163.95 128 135.9 128 107 128 C107 120.74 107 113.48 107 106 C99.74 106 92.48 106 85 106 C85 99.07 85 92.14 85 85 C78.07 85 71.14 85 64 85 C64 78.07 64 71.14 64 64 C57.07 64 50.14 64 43 64 C43 56.74 43 49.48 43 42 C14.62 42 -13.76 42 -43 42 C-43 35.07 -43 28.14 -43 21 C-28.81 21 -14.62 21 0 21 C0 14.07 0 7.14 0 0 Z " fill="#D5F53F" transform="translate(256,43)"/>
<path d="M0 0 C6.93 0 13.86 0 21 0 C21 28.38 21 56.76 21 86 C14.07 86 7.14 86 0 86 C0 92.93 0 99.86 0 107 C-7.26 107 -14.52 107 -22 107 C-22 113.93 -22 120.86 -22 128 C-28.93 128 -35.86 128 -43 128 C-43 114.14 -43 100.28 -43 86 C-57.19 86 -71.38 86 -86 86 C-86 99.86 -86 113.72 -86 128 C-92.93 128 -99.86 128 -107 128 C-107 121.07 -107 114.14 -107 107 C-113.93 107 -120.86 107 -128 107 C-128 100.07 -128 93.14 -128 86 C-121.07 86 -114.14 86 -107 86 C-107 78.74 -107 71.48 -107 64 C-100.07 64 -93.14 64 -86 64 C-86 57.07 -86 50.14 -86 43 C-78.74 43 -71.48 43 -64 43 C-64 49.93 -64 56.86 -64 64 C-57.07 64 -50.14 64 -43 64 C-43 57.07 -43 50.14 -43 43 C-28.81 43 -14.62 43 0 43 C0 28.81 0 14.62 0 0 Z " fill="#15612E" transform="translate(427,277)"/>
<path d="M0 0 C21.12 0 42.24 0 64 0 C64 7.26 64 14.52 64 22 C70.93 22 77.86 22 85 22 C85 28.93 85 35.86 85 43 C92.26 43 99.52 43 107 43 C107 49.93 107 56.86 107 64 C43.64 64 -19.72 64 -85 64 C-85 57.07 -85 50.14 -85 43 C-71.14 43 -57.28 43 -43 43 C-43 36.07 -43 29.14 -43 22 C-28.81 22 -14.62 22 0 22 C0 14.74 0 7.48 0 0 Z " fill="#FFFFFF" transform="translate(192,85)"/>
<path d="M0 0 C7.26 0 14.52 0 22 0 C22 6.93 22 13.86 22 21 C28.93 21 35.86 21 43 21 C43 42.12 43 63.24 43 85 C49.93 85 56.86 85 64 85 C64 106.12 64 127.24 64 149 C50.14 149 36.28 149 22 149 C22 142.07 22 135.14 22 128 C14.74 128 7.48 128 0 128 C0 85.76 0 43.52 0 0 Z " fill="#0093DD" transform="translate(85,235)"/>
<path d="M0 0 C14.19 0 28.38 0 43 0 C43 56.1 43 112.2 43 170 C36.07 170 29.14 170 22 170 C22 163.07 22 156.14 22 149 C14.74 149 7.48 149 0 149 C0 134.81 0 120.62 0 106 C7.26 106 14.52 106 22 106 C22 92.14 22 78.28 22 64 C14.74 64 7.48 64 0 64 C0 56.74 0 49.48 0 42 C-6.93 42 -13.86 42 -21 42 C-21 35.07 -21 28.14 -21 21 C-14.07 21 -7.14 21 0 21 C0 14.07 0 7.14 0 0 Z " fill="#0093DD" transform="translate(213,299)"/>
<path d="M0 0 C6.93 0 13.86 0 21 0 C21 14.19 21 28.38 21 43 C27.93 43 34.86 43 42 43 C42 49.93 42 56.86 42 64 C56.19 64 70.38 64 85 64 C85 71.26 85 78.52 85 86 C70.81 86 56.62 86 42 86 C42 92.93 42 99.86 42 107 C20.88 107 -0.24 107 -22 107 C-22 92.81 -22 78.62 -22 64 C-14.74 64 -7.48 64 0 64 C0 42.88 0 21.76 0 0 Z " fill="#00A3E2" transform="translate(171,213)"/>
<path d="M0 0 C6.93 0 13.86 0 21 0 C21 7.26 21 14.52 21 22 C28.26 22 35.52 22 43 22 C43 14.74 43 7.48 43 0 C49.93 0 56.86 0 64 0 C64 14.19 64 28.38 64 43 C49.81 43 35.62 43 21 43 C21 57.19 21 71.38 21 86 C-0.12 86 -21.24 86 -43 86 C-43 71.81 -43 57.62 -43 43 C-35.74 43 -28.48 43 -21 43 C-21 36.07 -21 29.14 -21 22 C-14.07 22 -7.14 22 0 22 C0 14.74 0 7.48 0 0 Z " fill="#837661" transform="translate(384,213)"/>
<path d="M0 0 C14.19 0 28.38 0 43 0 C43 6.93 43 13.86 43 21 C49.93 21 56.86 21 64 21 C64 42.12 64 63.24 64 85 C57.07 85 50.14 85 43 85 C43 91.93 43 98.86 43 106 C35.74 106 28.48 106 21 106 C21 99.07 21 92.14 21 85 C14.07 85 7.14 85 0 85 C0 56.95 0 28.9 0 0 Z " fill="#FFFFFF" transform="translate(192,171)"/>
<path d="M0 0 C34.98 0 69.96 0 106 0 C106 7.26 106 14.52 106 22 C120.19 22 134.38 22 149 22 C149 28.93 149 35.86 149 43 C134.81 43 120.62 43 106 43 C106 49.93 106 56.86 106 64 C99.07 64 92.14 64 85 64 C85 57.07 85 50.14 85 43 C78.07 43 71.14 43 64 43 C64 36.07 64 29.14 64 22 C49.81 22 35.62 22 21 22 C21 28.93 21 35.86 21 43 C14.07 43 7.14 43 0 43 C0 28.81 0 14.62 0 0 Z " fill="#BBCEEA" transform="translate(171,149)"/>
<path d="M0 0 C28.38 0 56.76 0 86 0 C86 14.19 86 28.38 86 43 C92.93 43 99.86 43 107 43 C107 49.93 107 56.86 107 64 C92.81 64 78.62 64 64 64 C64 57.07 64 50.14 64 43 C50.14 43 36.28 43 22 43 C22 36.07 22 29.14 22 22 C14.74 22 7.48 22 0 22 C0 14.74 0 7.48 0 0 Z " fill="#E2F842" transform="translate(85,149)"/>
<path d="M0 0 C14.19 0 28.38 0 43 0 C43 6.93 43 13.86 43 21 C49.93 21 56.86 21 64 21 C64 35.19 64 49.38 64 64 C42.88 64 21.76 64 0 64 C0 42.88 0 21.76 0 0 Z " fill="#69B900" transform="translate(149,320)"/>
<path d="M0 0 C14.19 0 28.38 0 43 0 C43 13.86 43 27.72 43 42 C36.07 42 29.14 42 22 42 C22 49.26 22 56.52 22 64 C14.74 64 7.48 64 0 64 C0 56.74 0 49.48 0 42 C-6.93 42 -13.86 42 -21 42 C-21 49.26 -21 56.52 -21 64 C-27.93 64 -34.86 64 -42 64 C-42 49.81 -42 35.62 -42 21 C-28.14 21 -14.28 21 0 21 C0 14.07 0 7.14 0 0 Z " fill="#1C733B" transform="translate(405,171)"/>
<path d="M0 0 C14.19 0 28.38 0 43 0 C43 14.19 43 28.38 43 43 C36.07 43 29.14 43 22 43 C22 49.93 22 56.86 22 64 C7.81 64 -6.38 64 -21 64 C-21 49.81 -21 35.62 -21 21 C-14.07 21 -7.14 21 0 21 C0 14.07 0 7.14 0 0 Z " fill="#00D4F0" transform="translate(277,192)"/>
<path d="M0 0 C6.93 0 13.86 0 21 0 C21 6.93 21 13.86 21 21 C35.19 21 49.38 21 64 21 C64 35.19 64 49.38 64 64 C57.07 64 50.14 64 43 64 C43 56.74 43 49.48 43 42 C14.62 42 -13.76 42 -43 42 C-43 35.07 -43 28.14 -43 21 C-28.81 21 -14.62 21 0 21 C0 14.07 0 7.14 0 0 Z " fill="#BCEF2E" transform="translate(256,43)"/>
<path d="M0 0 C7.26 0 14.52 0 22 0 C22 14.19 22 28.38 22 43 C14.74 43 7.48 43 0 43 C0 56.86 0 70.72 0 85 C-6.93 85 -13.86 85 -21 85 C-21 78.07 -21 71.14 -21 64 C-27.93 64 -34.86 64 -42 64 C-42 57.07 -42 50.14 -42 43 C-35.07 43 -28.14 43 -21 43 C-21 35.74 -21 28.48 -21 21 C-14.07 21 -7.14 21 0 21 C0 14.07 0 7.14 0 0 Z " fill="#196D36" transform="translate(341,320)"/>
<path d="M0 0 C14.19 0 28.38 0 43 0 C43 7.26 43 14.52 43 22 C49.93 22 56.86 22 64 22 C64 28.93 64 35.86 64 43 C70.93 43 77.86 43 85 43 C85 49.93 85 56.86 85 64 C71.14 64 57.28 64 43 64 C43 57.07 43 50.14 43 43 C35.74 43 28.48 43 21 43 C21 36.07 21 29.14 21 22 C14.07 22 7.14 22 0 22 C0 14.74 0 7.48 0 0 Z " fill="#00D9F1" transform="translate(256,85)"/>
<path d="M0 0 C6.93 0 13.86 0 21 0 C21 7.26 21 14.52 21 22 C28.26 22 35.52 22 43 22 C43 28.93 43 35.86 43 43 C35.74 43 28.48 43 21 43 C21 49.93 21 56.86 21 64 C7.14 64 -6.72 64 -21 64 C-21 50.14 -21 36.28 -21 22 C-14.07 22 -7.14 22 0 22 C0 14.74 0 7.48 0 0 Z " fill="#877A66" transform="translate(320,277)"/>
<path d="M0 0 C14.19 0 28.38 0 43 0 C43 6.93 43 13.86 43 21 C49.93 21 56.86 21 64 21 C64 28.26 64 35.52 64 43 C42.88 43 21.76 43 0 43 C0 28.81 0 14.62 0 0 Z " fill="#D3F539" transform="translate(384,128)"/>
<path d="M0 0 C14.19 0 28.38 0 43 0 C43 7.26 43 14.52 43 22 C49.93 22 56.86 22 64 22 C64 28.93 64 35.86 64 43 C42.88 43 21.76 43 0 43 C0 28.81 0 14.62 0 0 Z " fill="#1D753D" transform="translate(149,277)"/>
<path d="M0 0 C13.86 0 27.72 0 42 0 C42 6.93 42 13.86 42 21 C49.26 21 56.52 21 64 21 C64 35.19 64 49.38 64 64 C56.74 64 49.48 64 42 64 C42 57.07 42 50.14 42 43 C35.07 43 28.14 43 21 43 C21 35.74 21 28.48 21 21 C14.07 21 7.14 21 0 21 C0 14.07 0 7.14 0 0 Z " fill="#81CE00" transform="translate(107,192)"/>
<path d="M0 0 C6.93 0 13.86 0 21 0 C21 7.26 21 14.52 21 22 C35.19 22 49.38 22 64 22 C64 28.93 64 35.86 64 43 C57.07 43 50.14 43 43 43 C43 49.93 43 56.86 43 64 C35.74 64 28.48 64 21 64 C21 57.07 21 50.14 21 43 C14.07 43 7.14 43 0 43 C0 28.81 0 14.62 0 0 Z " fill="#DCE6F4" transform="translate(192,213)"/>
<path d="M0 0 C14.19 0 28.38 0 43 0 C43 6.93 43 13.86 43 21 C36.07 21 29.14 21 22 21 C22 27.93 22 34.86 22 42 C0.88 42 -20.24 42 -42 42 C-42 35.07 -42 28.14 -42 21 C-28.14 21 -14.28 21 0 21 C0 14.07 0 7.14 0 0 Z " fill="#00D4F0" transform="translate(149,107)"/>
<path d="M0 0 C21.12 0 42.24 0 64 0 C64 7.26 64 14.52 64 22 C49.81 22 35.62 22 21 22 C21 28.93 21 35.86 21 43 C14.07 43 7.14 43 0 43 C0 28.81 0 14.62 0 0 Z " fill="#00DAF2" transform="translate(171,149)"/>
<path d="M0 0 C7.26 0 14.52 0 22 0 C22 7.26 22 14.52 22 22 C35.86 22 49.72 22 64 22 C64 28.93 64 35.86 64 43 C42.88 43 21.76 43 0 43 C0 28.81 0 14.62 0 0 Z " fill="#FFFFFF" transform="translate(341,149)"/>
<path d="M0 0 C14.19 0 28.38 0 43 0 C43 6.93 43 13.86 43 21 C35.74 21 28.48 21 21 21 C21 35.19 21 49.38 21 64 C14.07 64 7.14 64 0 64 C0 42.88 0 21.76 0 0 Z " fill="#93C234" transform="translate(128,256)"/>
<path d="M0 0 C6.93 0 13.86 0 21 0 C21 7.26 21 14.52 21 22 C28.26 22 35.52 22 43 22 C43 28.93 43 35.86 43 43 C35.74 43 28.48 43 21 43 C21 49.93 21 56.86 21 64 C14.07 64 7.14 64 0 64 C0 42.88 0 21.76 0 0 Z " fill="#7CCA00" transform="translate(64,149)"/>
<path d="M0 0 C21.12 0 42.24 0 64 0 C64 7.26 64 14.52 64 22 C42.88 22 21.76 22 0 22 C0 14.74 0 7.48 0 0 Z " fill="#CDF41F" transform="translate(85,149)"/>
<path d="M0 0 C14.19 0 28.38 0 43 0 C43 6.93 43 13.86 43 21 C36.07 21 29.14 21 22 21 C22 28.26 22 35.52 22 43 C14.74 43 7.48 43 0 43 C0 28.81 0 14.62 0 0 Z " fill="#6ABA00" transform="translate(149,320)"/>
<path d="M0 0 C14.19 0 28.38 0 43 0 C43 7.26 43 14.52 43 22 C35.74 22 28.48 22 21 22 C21 28.93 21 35.86 21 43 C14.07 43 7.14 43 0 43 C0 28.81 0 14.62 0 0 Z " fill="#C7F228" transform="translate(320,85)"/>
<path d="M0 0 C13.86 0 27.72 0 42 0 C42 7.26 42 14.52 42 22 C35.07 22 28.14 22 21 22 C21 28.93 21 35.86 21 43 C14.07 43 7.14 43 0 43 C0 28.81 0 14.62 0 0 Z " fill="#BBCEEA" transform="translate(235,149)"/>
<path d="M0 0 C14.19 0 28.38 0 43 0 C43 13.86 43 27.72 43 42 C36.07 42 29.14 42 22 42 C22 35.07 22 28.14 22 21 C14.74 21 7.48 21 0 21 C0 14.07 0 7.14 0 0 Z " fill="#005ABE" transform="translate(341,363)"/>
<path d="M0 0 C13.86 0 27.72 0 42 0 C42 6.93 42 13.86 42 21 C35.07 21 28.14 21 21 21 C21 28.26 21 35.52 21 43 C14.07 43 7.14 43 0 43 C0 28.81 0 14.62 0 0 Z " fill="#125B2C" transform="translate(363,192)"/>
<path d="M0 0 C13.86 0 27.72 0 42 0 C42 13.86 42 27.72 42 42 C35.07 42 28.14 42 21 42 C21 35.07 21 28.14 21 21 C14.07 21 7.14 21 0 21 C0 14.07 0 7.14 0 0 Z " fill="#196C34" transform="translate(299,363)"/>
<path d="M0 0 C14.19 0 28.38 0 43 0 C43 7.26 43 14.52 43 22 C28.81 22 14.62 22 0 22 C0 14.74 0 7.48 0 0 Z " fill="#00A3E2" transform="translate(85,341)"/>
<path d="M0 0 C14.19 0 28.38 0 43 0 C43 7.26 43 14.52 43 22 C28.81 22 14.62 22 0 22 C0 14.74 0 7.48 0 0 Z " fill="#005ABE" transform="translate(277,277)"/>
<path d="M0 0 C7.26 0 14.52 0 22 0 C22 14.19 22 28.38 22 43 C14.74 43 7.48 43 0 43 C0 28.81 0 14.62 0 0 Z " fill="#9D9971" transform="translate(85,192)"/>
<path d="M0 0 C14.19 0 28.38 0 43 0 C43 7.26 43 14.52 43 22 C28.81 22 14.62 22 0 22 C0 14.74 0 7.48 0 0 Z " fill="#DBF73C" transform="translate(405,149)"/>
<path d="M0 0 C14.19 0 28.38 0 43 0 C43 7.26 43 14.52 43 22 C28.81 22 14.62 22 0 22 C0 14.74 0 7.48 0 0 Z " fill="#00EEF9" transform="translate(256,85)"/>
<path d="M0 0 C14.19 0 28.38 0 43 0 C43 7.26 43 14.52 43 22 C28.81 22 14.62 22 0 22 C0 14.74 0 7.48 0 0 Z " fill="#BBCEEA" transform="translate(192,85)"/>
<path d="M0 0 C7.26 0 14.52 0 22 0 C22 13.86 22 27.72 22 42 C14.74 42 7.48 42 0 42 C0 28.14 0 14.28 0 0 Z " fill="#1D753D" transform="translate(213,363)"/>
<path d="M0 0 C6.93 0 13.86 0 21 0 C21 14.19 21 28.38 21 43 C14.07 43 7.14 43 0 43 C0 28.81 0 14.62 0 0 Z " fill="#486430" transform="translate(427,277)"/>
<path d="M0 0 C6.93 0 13.86 0 21 0 C21 14.19 21 28.38 21 43 C14.07 43 7.14 43 0 43 C0 28.81 0 14.62 0 0 Z " fill="#1D753D" transform="translate(171,213)"/>
<path d="M0 0 C14.19 0 28.38 0 43 0 C43 6.93 43 13.86 43 21 C28.81 21 14.62 21 0 21 C0 14.07 0 7.14 0 0 Z " fill="#EBFA44" transform="translate(149,192)"/>
<path d="M0 0 C14.19 0 28.38 0 43 0 C43 6.93 43 13.86 43 21 C28.81 21 14.62 21 0 21 C0 14.07 0 7.14 0 0 Z " fill="#3D9926" transform="translate(213,64)"/>
<path d="M0 0 C6.93 0 13.86 0 21 0 C21 13.86 21 27.72 21 42 C14.07 42 7.14 42 0 42 C0 28.14 0 14.28 0 0 Z " fill="#5B4D49" transform="translate(299,299)"/>
<path d="M0 0 C13.86 0 27.72 0 42 0 C42 6.93 42 13.86 42 21 C28.14 21 14.28 21 0 21 C0 14.07 0 7.14 0 0 Z " fill="#0093DD" transform="translate(171,256)"/>
<path d="M0 0 C13.86 0 27.72 0 42 0 C42 6.93 42 13.86 42 21 C28.14 21 14.28 21 0 21 C0 14.07 0 7.14 0 0 Z " fill="#00EEF9" transform="translate(363,171)"/>
<path d="M0 0 C13.86 0 27.72 0 42 0 C42 6.93 42 13.86 42 21 C28.14 21 14.28 21 0 21 C0 14.07 0 7.14 0 0 Z " fill="#DFF849" transform="translate(107,128)"/>
<path d="M0 0 C7.26 0 14.52 0 22 0 C22 7.26 22 14.52 22 22 C14.74 22 7.48 22 0 22 C0 14.74 0 7.48 0 0 Z " fill="#00A3E2" transform="translate(213,405)"/>
<path d="M0 0 C7.26 0 14.52 0 22 0 C22 7.26 22 14.52 22 22 C14.74 22 7.48 22 0 22 C0 14.74 0 7.48 0 0 Z " fill="#00A3E2" transform="translate(213,341)"/>
<path d="M0 0 C7.26 0 14.52 0 22 0 C22 7.26 22 14.52 22 22 C14.74 22 7.48 22 0 22 C0 14.74 0 7.48 0 0 Z " fill="#969775" transform="translate(149,341)"/>
<path d="M0 0 C7.26 0 14.52 0 22 0 C22 7.26 22 14.52 22 22 C14.74 22 7.48 22 0 22 C0 14.74 0 7.48 0 0 Z " fill="#7D705A" transform="translate(341,277)"/>
<path d="M0 0 C7.26 0 14.52 0 22 0 C22 7.26 22 14.52 22 22 C14.74 22 7.48 22 0 22 C0 14.74 0 7.48 0 0 Z " fill="#00C3EC" transform="translate(149,277)"/>
<path d="M0 0 C7.26 0 14.52 0 22 0 C22 7.26 22 14.52 22 22 C14.74 22 7.48 22 0 22 C0 14.74 0 7.48 0 0 Z " fill="#00A3E2" transform="translate(85,277)"/>
<path d="M0 0 C7.26 0 14.52 0 22 0 C22 7.26 22 14.52 22 22 C14.74 22 7.48 22 0 22 C0 14.74 0 7.48 0 0 Z " fill="#5B4D49" transform="translate(405,213)"/>
<path d="M0 0 C7.26 0 14.52 0 22 0 C22 7.26 22 14.52 22 22 C14.74 22 7.48 22 0 22 C0 14.74 0 7.48 0 0 Z " fill="#005ABE" transform="translate(341,213)"/>
<path d="M0 0 C7.26 0 14.52 0 22 0 C22 7.26 22 14.52 22 22 C14.74 22 7.48 22 0 22 C0 14.74 0 7.48 0 0 Z " fill="#DBF73C" transform="translate(85,149)"/>
<path d="M0 0 C6.93 0 13.86 0 21 0 C21 7.26 21 14.52 21 22 C14.07 22 7.14 22 0 22 C0 14.74 0 7.48 0 0 Z " fill="#95C434" transform="translate(192,405)"/>
<path d="M0 0 C7.26 0 14.52 0 22 0 C22 6.93 22 13.86 22 21 C14.74 21 7.48 21 0 21 C0 14.07 0 7.14 0 0 Z " fill="#B2B391" transform="translate(149,384)"/>
<path d="M0 0 C7.26 0 14.52 0 22 0 C22 6.93 22 13.86 22 21 C14.74 21 7.48 21 0 21 C0 14.07 0 7.14 0 0 Z " fill="#7EB62C" transform="translate(149,363)"/>
<path d="M0 0 C6.93 0 13.86 0 21 0 C21 7.26 21 14.52 21 22 C14.07 22 7.14 22 0 22 C0 14.74 0 7.48 0 0 Z " fill="#004EB3" transform="translate(427,341)"/>
<path d="M0 0 C6.93 0 13.86 0 21 0 C21 7.26 21 14.52 21 22 C14.07 22 7.14 22 0 22 C0 14.74 0 7.48 0 0 Z " fill="#3D9926" transform="translate(320,341)"/>
<path d="M0 0 C6.93 0 13.86 0 21 0 C21 7.26 21 14.52 21 22 C14.07 22 7.14 22 0 22 C0 14.74 0 7.48 0 0 Z " fill="#004EB3" transform="translate(299,341)"/>
<path d="M0 0 C7.26 0 14.52 0 22 0 C22 6.93 22 13.86 22 21 C14.74 21 7.48 21 0 21 C0 14.07 0 7.14 0 0 Z " fill="#4E6B35" transform="translate(341,320)"/>
<path d="M0 0 C6.93 0 13.86 0 21 0 C21 7.26 21 14.52 21 22 C14.07 22 7.14 22 0 22 C0 14.74 0 7.48 0 0 Z " fill="#A5A486" transform="translate(320,277)"/>
<path d="M0 0 C6.93 0 13.86 0 21 0 C21 7.26 21 14.52 21 22 C14.07 22 7.14 22 0 22 C0 14.74 0 7.48 0 0 Z " fill="#95ACC6" transform="translate(235,277)"/>
<path d="M0 0 C6.93 0 13.86 0 21 0 C21 7.26 21 14.52 21 22 C14.07 22 7.14 22 0 22 C0 14.74 0 7.48 0 0 Z " fill="#00B9E9" transform="translate(192,277)"/>
<path d="M0 0 C6.93 0 13.86 0 21 0 C21 7.26 21 14.52 21 22 C14.07 22 7.14 22 0 22 C0 14.74 0 7.48 0 0 Z " fill="#3D9926" transform="translate(171,277)"/>
<path d="M0 0 C7.26 0 14.52 0 22 0 C22 6.93 22 13.86 22 21 C14.74 21 7.48 21 0 21 C0 14.07 0 7.14 0 0 Z " fill="#A5A486" transform="translate(341,256)"/>
<path d="M0 0 C7.26 0 14.52 0 22 0 C22 6.93 22 13.86 22 21 C14.74 21 7.48 21 0 21 C0 14.07 0 7.14 0 0 Z " fill="#1D753D" transform="translate(149,256)"/>
<path d="M0 0 C7.26 0 14.52 0 22 0 C22 6.93 22 13.86 22 21 C14.74 21 7.48 21 0 21 C0 14.07 0 7.14 0 0 Z " fill="#125B2C" transform="translate(341,235)"/>
<path d="M0 0 C7.26 0 14.52 0 22 0 C22 6.93 22 13.86 22 21 C14.74 21 7.48 21 0 21 C0 14.07 0 7.14 0 0 Z " fill="#00A3E2" transform="translate(85,235)"/>
<path d="M0 0 C6.93 0 13.86 0 21 0 C21 7.26 21 14.52 21 22 C14.07 22 7.14 22 0 22 C0 14.74 0 7.48 0 0 Z " fill="#7B6E58" transform="translate(427,213)"/>
<path d="M0 0 C6.93 0 13.86 0 21 0 C21 7.26 21 14.52 21 22 C14.07 22 7.14 22 0 22 C0 14.74 0 7.48 0 0 Z " fill="#A5A486" transform="translate(384,213)"/>
<path d="M0 0 C6.93 0 13.86 0 21 0 C21 7.26 21 14.52 21 22 C14.07 22 7.14 22 0 22 C0 14.74 0 7.48 0 0 Z " fill="#00EEF9" transform="translate(256,213)"/>
<path d="M0 0 C6.93 0 13.86 0 21 0 C21 7.26 21 14.52 21 22 C14.07 22 7.14 22 0 22 C0 14.74 0 7.48 0 0 Z " fill="#00DDF3" transform="translate(192,213)"/>
<path d="M0 0 C7.26 0 14.52 0 22 0 C22 6.93 22 13.86 22 21 C14.74 21 7.48 21 0 21 C0 14.07 0 7.14 0 0 Z " fill="#B0B18E" transform="translate(85,192)"/>
<path d="M0 0 C7.26 0 14.52 0 22 0 C22 6.93 22 13.86 22 21 C14.74 21 7.48 21 0 21 C0 14.07 0 7.14 0 0 Z " fill="#BBCEEA" transform="translate(341,171)"/>
<path d="M0 0 C6.93 0 13.86 0 21 0 C21 7.26 21 14.52 21 22 C14.07 22 7.14 22 0 22 C0 14.74 0 7.48 0 0 Z " fill="#CDF41F" transform="translate(384,149)"/>
<path d="M0 0 C6.93 0 13.86 0 21 0 C21 7.26 21 14.52 21 22 C14.07 22 7.14 22 0 22 C0 14.74 0 7.48 0 0 Z " fill="#3D9926" transform="translate(363,149)"/>
<path d="M0 0 C6.93 0 13.86 0 21 0 C21 7.26 21 14.52 21 22 C14.07 22 7.14 22 0 22 C0 14.74 0 7.48 0 0 Z " fill="#92D400" transform="translate(64,149)"/>
<path d="M0 0 C7.26 0 14.52 0 22 0 C22 6.93 22 13.86 22 21 C14.74 21 7.48 21 0 21 C0 14.07 0 7.14 0 0 Z " fill="#3D9926" transform="translate(341,128)"/>
<path d="M0 0 C7.26 0 14.52 0 22 0 C22 6.93 22 13.86 22 21 C14.74 21 7.48 21 0 21 C0 14.07 0 7.14 0 0 Z " fill="#95ACC6" transform="translate(277,128)"/>
<path d="M0 0 C6.93 0 13.86 0 21 0 C21 7.26 21 14.52 21 22 C14.07 22 7.14 22 0 22 C0 14.74 0 7.48 0 0 Z " fill="#3D9926" transform="translate(299,85)"/>
<path d="M0 0 C6.93 0 13.86 0 21 0 C21 7.26 21 14.52 21 22 C14.07 22 7.14 22 0 22 C0 14.74 0 7.48 0 0 Z " fill="#00D1EF" transform="translate(192,85)"/>
<path d="M0 0 C6.93 0 13.86 0 21 0 C21 6.93 21 13.86 21 21 C14.07 21 7.14 21 0 21 C0 14.07 0 7.14 0 0 Z " fill="#004EB3" transform="translate(256,448)"/>
<path d="M0 0 C6.93 0 13.86 0 21 0 C21 6.93 21 13.86 21 21 C14.07 21 7.14 21 0 21 C0 14.07 0 7.14 0 0 Z " fill="#3D9926" transform="translate(192,427)"/>
<path d="M0 0 C6.93 0 13.86 0 21 0 C21 6.93 21 13.86 21 21 C14.07 21 7.14 21 0 21 C0 14.07 0 7.14 0 0 Z " fill="#A8A478" transform="translate(171,427)"/>
<path d="M0 0 C6.93 0 13.86 0 21 0 C21 6.93 21 13.86 21 21 C14.07 21 7.14 21 0 21 C0 14.07 0 7.14 0 0 Z " fill="#1D763D" transform="translate(384,384)"/>
<path d="M0 0 C6.93 0 13.86 0 21 0 C21 6.93 21 13.86 21 21 C14.07 21 7.14 21 0 21 C0 14.07 0 7.14 0 0 Z " fill="#125B2C" transform="translate(299,363)"/>
<path d="M0 0 C6.93 0 13.86 0 21 0 C21 6.93 21 13.86 21 21 C14.07 21 7.14 21 0 21 C0 14.07 0 7.14 0 0 Z " fill="#496631" transform="translate(384,320)"/>
<path d="M0 0 C6.93 0 13.86 0 21 0 C21 6.93 21 13.86 21 21 C14.07 21 7.14 21 0 21 C0 14.07 0 7.14 0 0 Z " fill="#00A3E2" transform="translate(192,320)"/>
<path d="M0 0 C6.93 0 13.86 0 21 0 C21 6.93 21 13.86 21 21 C14.07 21 7.14 21 0 21 C0 14.07 0 7.14 0 0 Z " fill="#93C234" transform="translate(171,320)"/>
<path d="M0 0 C6.93 0 13.86 0 21 0 C21 6.93 21 13.86 21 21 C14.07 21 7.14 21 0 21 C0 14.07 0 7.14 0 0 Z " fill="#7D705A" transform="translate(320,299)"/>
<path d="M0 0 C6.93 0 13.86 0 21 0 C21 6.93 21 13.86 21 21 C14.07 21 7.14 21 0 21 C0 14.07 0 7.14 0 0 Z " fill="#3D9926" transform="translate(192,299)"/>
<path d="M0 0 C6.93 0 13.86 0 21 0 C21 6.93 21 13.86 21 21 C14.07 21 7.14 21 0 21 C0 14.07 0 7.14 0 0 Z " fill="#0093DD" transform="translate(171,299)"/>
<path d="M0 0 C6.93 0 13.86 0 21 0 C21 6.93 21 13.86 21 21 C14.07 21 7.14 21 0 21 C0 14.07 0 7.14 0 0 Z " fill="#A5CC3B" transform="translate(128,299)"/>
<path d="M0 0 C6.93 0 13.86 0 21 0 C21 6.93 21 13.86 21 21 C14.07 21 7.14 21 0 21 C0 14.07 0 7.14 0 0 Z " fill="#7D705A" transform="translate(363,256)"/>
<path d="M0 0 C6.93 0 13.86 0 21 0 C21 6.93 21 13.86 21 21 C14.07 21 7.14 21 0 21 C0 14.07 0 7.14 0 0 Z " fill="#006DDF" transform="translate(320,256)"/>
<path d="M0 0 C6.93 0 13.86 0 21 0 C21 6.93 21 13.86 21 21 C14.07 21 7.14 21 0 21 C0 14.07 0 7.14 0 0 Z " fill="#00C3EC" transform="translate(235,256)"/>
<path d="M0 0 C6.93 0 13.86 0 21 0 C21 6.93 21 13.86 21 21 C14.07 21 7.14 21 0 21 C0 14.07 0 7.14 0 0 Z " fill="#00A3E2" transform="translate(171,256)"/>
<path d="M0 0 C6.93 0 13.86 0 21 0 C21 6.93 21 13.86 21 21 C14.07 21 7.14 21 0 21 C0 14.07 0 7.14 0 0 Z " fill="#74C300" transform="translate(128,256)"/>
<path d="M0 0 C6.93 0 13.86 0 21 0 C21 6.93 21 13.86 21 21 C14.07 21 7.14 21 0 21 C0 14.07 0 7.14 0 0 Z " fill="#847764" transform="translate(427,235)"/>
<path d="M0 0 C6.93 0 13.86 0 21 0 C21 6.93 21 13.86 21 21 C14.07 21 7.14 21 0 21 C0 14.07 0 7.14 0 0 Z " fill="#A5A486" transform="translate(363,235)"/>
<path d="M0 0 C6.93 0 13.86 0 21 0 C21 6.93 21 13.86 21 21 C14.07 21 7.14 21 0 21 C0 14.07 0 7.14 0 0 Z " fill="#95ACC6" transform="translate(235,235)"/>
<path d="M0 0 C6.93 0 13.86 0 21 0 C21 6.93 21 13.86 21 21 C14.07 21 7.14 21 0 21 C0 14.07 0 7.14 0 0 Z " fill="#A2CB39" transform="translate(128,235)"/>
<path d="M0 0 C6.93 0 13.86 0 21 0 C21 6.93 21 13.86 21 21 C14.07 21 7.14 21 0 21 C0 14.07 0 7.14 0 0 Z " fill="#A9AB88" transform="translate(107,235)"/>
<path d="M0 0 C6.93 0 13.86 0 21 0 C21 6.93 21 13.86 21 21 C14.07 21 7.14 21 0 21 C0 14.07 0 7.14 0 0 Z " fill="#125B2C" transform="translate(427,192)"/>
<path d="M0 0 C6.93 0 13.86 0 21 0 C21 6.93 21 13.86 21 21 C14.07 21 7.14 21 0 21 C0 14.07 0 7.14 0 0 Z " fill="#95ACC6" transform="translate(256,192)"/>
<path d="M0 0 C6.93 0 13.86 0 21 0 C21 6.93 21 13.86 21 21 C14.07 21 7.14 21 0 21 C0 14.07 0 7.14 0 0 Z " fill="#E4F923" transform="translate(171,192)"/>
<path d="M0 0 C6.93 0 13.86 0 21 0 C21 6.93 21 13.86 21 21 C14.07 21 7.14 21 0 21 C0 14.07 0 7.14 0 0 Z " fill="#90D200" transform="translate(64,192)"/>
<path d="M0 0 C6.93 0 13.86 0 21 0 C21 6.93 21 13.86 21 21 C14.07 21 7.14 21 0 21 C0 14.07 0 7.14 0 0 Z " fill="#00D1EF" transform="translate(363,171)"/>
<path d="M0 0 C6.93 0 13.86 0 21 0 C21 6.93 21 13.86 21 21 C14.07 21 7.14 21 0 21 C0 14.07 0 7.14 0 0 Z " fill="#95ACC6" transform="translate(299,171)"/>
<path d="M0 0 C6.93 0 13.86 0 21 0 C21 6.93 21 13.86 21 21 C14.07 21 7.14 21 0 21 C0 14.07 0 7.14 0 0 Z " fill="#00D1EF" transform="translate(256,171)"/>
<path d="M0 0 C6.93 0 13.86 0 21 0 C21 6.93 21 13.86 21 21 C14.07 21 7.14 21 0 21 C0 14.07 0 7.14 0 0 Z " fill="#95ACC6" transform="translate(235,171)"/>
<path d="M0 0 C6.93 0 13.86 0 21 0 C21 6.93 21 13.86 21 21 C14.07 21 7.14 21 0 21 C0 14.07 0 7.14 0 0 Z " fill="#C2F21D" transform="translate(363,128)"/>
<path d="M0 0 C6.93 0 13.86 0 21 0 C21 6.93 21 13.86 21 21 C14.07 21 7.14 21 0 21 C0 14.07 0 7.14 0 0 Z " fill="#BBCEEA" transform="translate(171,128)"/>
<path d="M0 0 C6.93 0 13.86 0 21 0 C21 6.93 21 13.86 21 21 C14.07 21 7.14 21 0 21 C0 14.07 0 7.14 0 0 Z " fill="#00DDF3" transform="translate(107,128)"/>
<path d="M0 0 C6.93 0 13.86 0 21 0 C21 6.93 21 13.86 21 21 C14.07 21 7.14 21 0 21 C0 14.07 0 7.14 0 0 Z " fill="#CCF335" transform="translate(363,107)"/>
<path d="M0 0 C6.93 0 13.86 0 21 0 C21 6.93 21 13.86 21 21 C14.07 21 7.14 21 0 21 C0 14.07 0 7.14 0 0 Z " fill="#C7F321" transform="translate(320,107)"/>
</svg>
